<svg xmlns="http://www.w3.org/2000/svg" viewBox="0 0 2400 680" width="100%" height="100%">
  <defs>
    <!-- Background Gradients -->
    <linearGradient id="bgGradB" x1="0%" y1="0%" x2="100%" y2="100%">
      <stop offset="0%" stop-color="#02140d" />
      <stop offset="45%" stop-color="#052419" />
      <stop offset="85%" stop-color="#031710" />
      <stop offset="100%" stop-color="#010a07" />
    </linearGradient>

    <!-- Banknote Base Paper Gradients -->
    <linearGradient id="noteBase1" x1="0%" y1="0%" x2="100%" y2="100%">
      <stop offset="0%" stop-color="#064e3b" />
      <stop offset="60%" stop-color="#022c22" />
      <stop offset="100%" stop-color="#065f46" />
    </linearGradient>
    <linearGradient id="noteBase2" x1="0%" y1="0%" x2="100%" y2="100%">
      <stop offset="0%" stop-color="#047857" />
      <stop offset="50%" stop-color="#064e3b" />
      <stop offset="100%" stop-color="#022c22" />
    </linearGradient>
    <linearGradient id="noteBase3" x1="0%" y1="0%" x2="100%" y2="100%">
      <stop offset="0%" stop-color="#065f46" />
      <stop offset="50%" stop-color="#022c22" />
      <stop offset="100%" stop-color="#047857" />
    </linearGradient>

    <!-- Metallic Amber / Gold Gradients for Loupe & Wordmark -->
    <linearGradient id="goldGrad" x1="0%" y1="0%" x2="100%" y2="0%">
      <stop offset="0%" stop-color="#f59e0b" />
      <stop offset="40%" stop-color="#fbbf24" />
      <stop offset="75%" stop-color="#f59e0b" />
      <stop offset="100%" stop-color="#d97706" />
    </linearGradient>

    <linearGradient id="lensBezelGrad" x1="0%" y1="0%" x2="100%" y2="100%">
      <stop offset="0%" stop-color="#d97706" />
      <stop offset="25%" stop-color="#fbbf24" />
      <stop offset="50%" stop-color="#fef3c7" />
      <stop offset="75%" stop-color="#92400e" />
      <stop offset="100%" stop-color="#b45309" />
    </linearGradient>

    <linearGradient id="handleGrad" x1="0%" y1="0%" x2="100%" y2="100%">
      <stop offset="0%" stop-color="#1e293b" />
      <stop offset="30%" stop-color="#475569" />
      <stop offset="60%" stop-color="#0f172a" />
      <stop offset="100%" stop-color="#334155" />
    </linearGradient>

    <!-- Atmospheric Radial Glow behind Notes -->
    <radialGradient id="noteAtmosphereGlow" cx="60%" cy="50%" r="50%">
      <stop offset="0%" stop-color="#10b981" stop-opacity="0.18" />
      <stop offset="60%" stop-color="#047857" stop-opacity="0.06" />
      <stop offset="100%" stop-color="#047857" stop-opacity="0" />
    </radialGradient>

    <!-- Optical Lens Reflection Gradient -->
    <linearGradient id="lensReflectionGrad" x1="0%" y1="0%" x2="100%" y2="100%">
      <stop offset="0%" stop-color="#ffffff" stop-opacity="0.30" />
      <stop offset="35%" stop-color="#ffffff" stop-opacity="0.08" />
      <stop offset="100%" stop-color="#ffffff" stop-opacity="0" />
    </linearGradient>

    <!-- Filters -->
    <filter id="noteShadow" x="-15%" y="-15%" width="130%" height="130%">
      <feDropShadow dx="8" dy="16" stdDeviation="16" flood-color="#000704" flood-opacity="0.7" />
    </filter>

    <filter id="lensShadow" x="-25%" y="-25%" width="150%" height="150%">
      <feDropShadow dx="14" dy="24" stdDeviation="18" flood-color="#010604" flood-opacity="0.85" />
    </filter>

    <filter id="fpGlow" x="-20%" y="-20%" width="140%" height="140%">
      <feGaussianBlur stdDeviation="3.5" result="blur" />
      <feMerge>
        <feMergeNode in="blur" />
        <feMergeNode in="SourceGraphic" />
      </feMerge>
    </filter>

    <filter id="brightMinutiaeGlow" x="-50%" y="-50%" width="200%" height="200%">
      <feGaussianBlur stdDeviation="5" result="glow" />
      <feMerge>
        <feMergeNode in="glow" />
        <feMergeNode in="SourceGraphic" />
      </feMerge>
    </filter>

    <!-- Clip Path for Magnifier Lens Interior -->
    <clipPath id="lensClip">
      <circle cx="1680" cy="320" r="156" />
    </clipPath>
  </defs>

  <!-- Canvas Background -->
  <rect width="2400" height="680" fill="url(#bgGradB)" />

  <!-- Atmospheric Glow behind banknotes -->
  <rect width="2400" height="680" fill="url(#noteAtmosphereGlow)" />

  <!-- Background Guilloche Waves on Left Side -->
  <g id="bgGuillocheWaves">
    <path d="M 0.0,80.0 L 40.0,85.7 L 80.0,90.6 L 120.0,94.2 L 160.0,95.9 L 200.0,95.5 L 240.0,93.1 L 280.0,89.0 L 320.0,83.7 L 360.0,77.9 L 400.0,72.4 L 440.0,67.9 L 480.0,65.0 L 520.0,64.0 L 560.0,65.1 L 600.0,68.2 L 640.0,72.8 L 680.0,78.4 L 720.0,84.1 L 760.0,89.4 L 800.0,93.4 L 840.0,95.6 L 880.0,95.8 L 920.0,94.0 L 960.0,90.3 L 1000.0,85.2 L 1040.0,79.5 L 1080.0,73.9 L 1120.0,69.0" fill="none" stroke="#0d9488" stroke-width="1.0" opacity="0.12" /><path d="M 0.0,129.0 L 40.0,133.6 L 80.0,136.8 L 120.0,138.0 L 160.0,137.1 L 200.0,134.3 L 240.0,129.8 L 280.0,124.3 L 320.0,118.5 L 360.0,113.2 L 400.0,109.0 L 440.0,106.5 L 480.0,106.1 L 520.0,107.7 L 560.0,111.2 L 600.0,116.1 L 640.0,121.8 L 680.0,127.5 L 720.0,132.5 L 760.0,136.1 L 800.0,137.9 L 840.0,137.6 L 880.0,135.2 L 920.0,131.2 L 960.0,125.9 L 1000.0,120.1 L 1040.0,114.6 L 1080.0,110.0 L 1120.0,107.0" fill="none" stroke="#0d9488" stroke-width="1.0" opacity="0.12" /><path d="M 0.0,176.5 L 40.0,179.3 L 80.0,180.0 L 120.0,178.6 L 160.0,175.3 L 200.0,170.6 L 240.0,165.0 L 280.0,159.2 L 320.0,154.1 L 360.0,150.3 L 400.0,148.2 L 440.0,148.3 L 480.0,150.4 L 520.0,154.2 L 560.0,159.4 L 600.0,165.1 L 640.0,170.7 L 680.0,175.5 L 720.0,178.7 L 760.0,180.0 L 800.0,179.2 L 840.0,176.4 L 880.0,172.0 L 920.0,166.6 L 960.0,160.8 L 1000.0,155.4 L 1040.0,151.2 L 1080.0,148.6 L 1120.0,148.1" fill="none" stroke="#0d9488" stroke-width="1.0" opacity="0.12" /><path d="M 0.0,221.6 L 40.0,221.8 L 80.0,220.0 L 120.0,216.3 L 160.0,211.3 L 200.0,205.6 L 240.0,199.9 L 280.0,195.0 L 320.0,191.6 L 360.0,190.1 L 400.0,190.6 L 440.0,193.1 L 480.0,197.4 L 520.0,202.7 L 560.0,208.5 L 600.0,214.0 L 640.0,218.4 L 680.0,221.2 L 720.0,222.0 L 760.0,220.7 L 800.0,217.5 L 840.0,212.8 L 880.0,207.2 L 920.0,201.4 L 960.0,196.3 L 1000.0,192.4 L 1040.0,190.3 L 1080.0,190.2 L 1120.0,192.2" fill="none" stroke="#0d9488" stroke-width="1.0" opacity="0.12" /><path d="M 0.0,263.6 L 40.0,261.3 L 80.0,257.2 L 120.0,252.0 L 160.0,246.2 L 200.0,240.7 L 240.0,236.1 L 280.0,233.1 L 320.0,232.0 L 360.0,233.0 L 400.0,236.0 L 440.0,240.6 L 480.0,246.1 L 520.0,251.9 L 560.0,257.1 L 600.0,261.2 L 640.0,263.6 L 680.0,263.9 L 720.0,262.1 L 760.0,258.5 L 800.0,253.5 L 840.0,247.8 L 880.0,242.1 L 920.0,237.2 L 960.0,233.7 L 1000.0,232.1 L 1040.0,232.5 L 1080.0,235.0 L 1120.0,239.2" fill="none" stroke="#0d9488" stroke-width="1.0" opacity="0.12" /><path d="M 0.0,302.4 L 40.0,298.1 L 80.0,292.6 L 120.0,286.8 L 160.0,281.5 L 200.0,277.2 L 240.0,274.6 L 280.0,274.1 L 320.0,275.6 L 360.0,279.0 L 400.0,283.8 L 440.0,289.5 L 480.0,295.2 L 520.0,300.2 L 560.0,303.9 L 600.0,305.8 L 640.0,305.6 L 680.0,303.4 L 720.0,299.4 L 760.0,294.2 L 800.0,288.4 L 840.0,282.9 L 880.0,278.2 L 920.0,275.2 L 960.0,274.0 L 1000.0,274.9 L 1040.0,277.9 L 1080.0,282.4 L 1120.0,287.9" fill="none" stroke="#0d9488" stroke-width="1.0" opacity="0.12" /><path d="M 0.0,338.8 L 40.0,333.2 L 80.0,327.5 L 120.0,322.3 L 160.0,318.4 L 200.0,316.3 L 240.0,316.2 L 280.0,318.2 L 320.0,322.0 L 360.0,327.1 L 400.0,332.9 L 440.0,338.5 L 480.0,343.3 L 520.0,346.6 L 560.0,348.0 L 600.0,347.3 L 640.0,344.6 L 680.0,340.3 L 720.0,334.9 L 760.0,329.1 L 800.0,323.7 L 840.0,319.4 L 880.0,316.7 L 920.0,316.0 L 960.0,317.5 L 1000.0,320.8 L 1040.0,325.6 L 1080.0,331.2 L 1120.0,337.0" fill="none" stroke="#0d9488" stroke-width="1.0" opacity="0.12" /><path d="M 0.0,373.9 L 40.0,368.2 L 80.0,363.3 L 120.0,359.7 L 160.0,358.1 L 200.0,358.5 L 240.0,361.0 L 280.0,365.1 L 320.0,370.4 L 360.0,376.2 L 400.0,381.7 L 440.0,386.2 L 480.0,389.1 L 520.0,390.0 L 560.0,388.8 L 600.0,385.7 L 640.0,381.1 L 680.0,375.5 L 720.0,369.7 L 760.0,364.5 L 800.0,360.6 L 840.0,358.3 L 880.0,358.2 L 920.0,360.1 L 960.0,363.8 L 1000.0,368.9 L 1040.0,374.6 L 1080.0,380.3 L 1120.0,385.1" fill="none" stroke="#0d9488" stroke-width="1.0" opacity="0.12" /><path d="M 0.0,408.9 L 40.0,404.3 L 80.0,401.2 L 120.0,400.0 L 160.0,400.9 L 200.0,403.8 L 240.0,408.3 L 280.0,413.8 L 320.0,419.6 L 360.0,424.9 L 400.0,429.0 L 440.0,431.5 L 480.0,431.9 L 520.0,430.2 L 560.0,426.7 L 600.0,421.8 L 640.0,416.1 L 680.0,410.4 L 720.0,405.4 L 760.0,401.9 L 800.0,400.1 L 840.0,400.5 L 880.0,402.8 L 920.0,406.9 L 960.0,412.2 L 1000.0,418.0 L 1040.0,423.5 L 1080.0,428.0 L 1120.0,431.0" fill="none" stroke="#0d9488" stroke-width="1.0" opacity="0.12" /><path d="M 0.0,445.4 L 40.0,442.7 L 80.0,442.0 L 120.0,443.4 L 160.0,446.8 L 200.0,451.5 L 240.0,457.2 L 280.0,462.9 L 320.0,468.0 L 360.0,471.8 L 400.0,473.8 L 440.0,473.7 L 480.0,471.6 L 520.0,467.7 L 560.0,462.5 L 600.0,456.7 L 640.0,451.1 L 680.0,446.4 L 720.0,443.3 L 760.0,442.0 L 800.0,442.8 L 840.0,445.7 L 880.0,450.1 L 920.0,455.6 L 960.0,461.3 L 1000.0,466.7 L 1040.0,470.9 L 1080.0,473.4 L 1120.0,473.9" fill="none" stroke="#0d9488" stroke-width="1.0" opacity="0.12" /><path d="M 0.0,484.4 L 40.0,484.2 L 80.0,486.1 L 120.0,489.8 L 160.0,494.8 L 200.0,500.6 L 240.0,506.2 L 280.0,511.0 L 320.0,514.4 L 360.0,515.9 L 400.0,515.4 L 440.0,512.8 L 480.0,508.5 L 520.0,503.1 L 560.0,497.4 L 600.0,491.9 L 640.0,487.5 L 680.0,484.8 L 720.0,484.0 L 760.0,485.3 L 800.0,488.6 L 840.0,493.3 L 880.0,498.9 L 920.0,504.7 L 960.0,509.8 L 1000.0,513.7 L 1040.0,515.7 L 1080.0,515.7 L 1120.0,513.7" fill="none" stroke="#0d9488" stroke-width="1.0" opacity="0.12" /><path d="M 0.0,526.4 L 40.0,528.8 L 80.0,532.9 L 120.0,538.2 L 160.0,543.9 L 200.0,549.5 L 240.0,554.0 L 280.0,557.0 L 320.0,558.0 L 360.0,556.9 L 400.0,553.9 L 440.0,549.3 L 480.0,543.8 L 520.0,538.0 L 560.0,532.8 L 600.0,528.7 L 640.0,526.4 L 680.0,526.1 L 720.0,528.0 L 760.0,531.6 L 800.0,536.6 L 840.0,542.3 L 880.0,548.0 L 920.0,552.9 L 960.0,556.3 L 1000.0,557.9 L 1040.0,557.4 L 1080.0,554.9 L 1120.0,550.7" fill="none" stroke="#0d9488" stroke-width="1.0" opacity="0.12" /><path d="M 0.0,571.6 L 40.0,576.1 L 80.0,581.5 L 120.0,587.3 L 160.0,592.7 L 200.0,596.9 L 240.0,599.4 L 280.0,599.9 L 320.0,598.4 L 360.0,594.9 L 400.0,590.1 L 440.0,584.4 L 480.0,578.7 L 520.0,573.7 L 560.0,570.0 L 600.0,568.2 L 640.0,568.4 L 680.0,570.7 L 720.0,574.7 L 760.0,579.9 L 800.0,585.7 L 840.0,591.2 L 880.0,595.8 L 920.0,598.9 L 960.0,600.0 L 1000.0,599.0 L 1040.0,596.1 L 1080.0,591.5 L 1120.0,586.0" fill="none" stroke="#0d9488" stroke-width="1.0" opacity="0.12" /><path d="M 0.0,619.3 L 40.0,624.9 L 80.0,630.6 L 120.0,635.8 L 160.0,639.6 L 200.0,641.7 L 240.0,641.7 L 280.0,639.7 L 320.0,635.9 L 360.0,630.8 L 400.0,625.0 L 440.0,619.4 L 480.0,614.6 L 520.0,611.4 L 560.0,610.0 L 600.0,610.8 L 640.0,613.5 L 680.0,617.8 L 720.0,623.3 L 760.0,629.1 L 800.0,634.4 L 840.0,638.7 L 880.0,641.3 L 920.0,642.0 L 960.0,640.5 L 1000.0,637.1 L 1040.0,632.3 L 1080.0,626.6 L 1120.0,620.9" fill="none" stroke="#0d9488" stroke-width="1.0" opacity="0.12" />
  </g>

  <!-- ============================================================= -->
  <!-- LEFT SIDE: PROMINENT WORDMARK & TAGLINE                       -->
  <!-- ============================================================= -->
  <g id="brandingSection" transform="translate(140, 310)">
    <!-- Main Wordmark -->
    <text x="0" y="0" font-family="system-ui, -apple-system, 'Segoe UI', Roboto, Helvetica, Arial, sans-serif" font-size="108" font-weight="900" letter-spacing="-2">
      <tspan fill="#ffffff">Financial</tspan><tspan fill="url(#goldGrad)">Proof</tspan>
    </text>
    
    <!-- Short Tagline (Exact 5 words) -->
    <text x="4" y="62" font-family="system-ui, -apple-system, 'Segoe UI', Roboto, Helvetica, Arial, sans-serif" font-size="26" font-weight="500" fill="#a7f3d0" letter-spacing="0.5">
      Statistical pattern analysis. No financial advice.
    </text>
  </g>

  <!-- ============================================================= -->
  <!-- CENTER & RIGHT: STYLIZED GENERIC BANKNOTES                    -->
  <!-- ============================================================= -->
  <g id="banknotesLayer">
    
    <g id="banknote_back" transform="translate(1850, 270) rotate(7.5)" filter="url(#noteShadow)">
      <!-- Note Base Paper -->
      <rect x="-440.0" y="-220.0" width="880" height="440" rx="12" fill="url(#noteBase1)" stroke="#1e293b" stroke-width="2" />
      
      <!-- Inner Parchment Field -->
      <rect x="-426.0" y="-206.0" width="852" height="412" rx="8" fill="#064e3b" opacity="0.35" stroke="#047857" stroke-width="1.5" />
      <rect x="-418.0" y="-198.0" width="836" height="396" rx="6" fill="none" stroke="#34d399" stroke-width="1.2" stroke-dasharray="8 4" opacity="0.6" />

      <!-- Lathe Micro-Lines -->
      <path d="M -405.0,-165.0 L -375.0,-161.9 L -345.0,-160.5 L -315.0,-161.5 L -285.0,-164.4 L -255.0,-167.6 L -225.0,-169.4 L -195.0,-168.9 L -165.0,-166.3 L -135.0,-163.0 L -105.0,-160.8 L -75.0,-160.8 L -45.0,-163.1 L -15.0,-166.4 L 15.0,-169.0 L 45.0,-169.4 L 75.0,-167.4 L 105.0,-164.2 L 135.0,-161.4 L 165.0,-160.5 L 195.0,-162.1 L 225.0,-165.2 L 255.0,-168.2 L 285.0,-169.5 L 315.0,-168.4 L 345.0,-165.4 L 375.0,-162.3" fill="none" stroke="#10b981" stroke-width="0.8" opacity="0.22" /><path d="M -405.0,-140.5 L -375.0,-138.6 L -345.0,-139.1 L -315.0,-141.7 L -285.0,-145.0 L -255.0,-147.2 L -225.0,-147.2 L -195.0,-144.9 L -165.0,-141.6 L -135.0,-139.1 L -105.0,-138.6 L -75.0,-140.6 L -45.0,-143.8 L -15.0,-146.6 L 15.0,-147.5 L 45.0,-146.0 L 75.0,-142.8 L 105.0,-139.8 L 135.0,-138.5 L 165.0,-139.6 L 195.0,-142.5 L 225.0,-145.7 L 255.0,-147.4 L 285.0,-146.8 L 315.0,-144.1 L 345.0,-140.8 L 375.0,-138.7" fill="none" stroke="#10b981" stroke-width="0.8" opacity="0.22" /><path d="M -405.0,-116.8 L -375.0,-116.8 L -345.0,-119.1 L -315.0,-122.4 L -285.0,-124.9 L -255.0,-125.4 L -225.0,-123.5 L -195.0,-120.3 L -165.0,-117.4 L -135.0,-116.5 L -105.0,-118.0 L -75.0,-121.1 L -45.0,-124.1 L -15.0,-125.5 L 15.0,-124.4 L 45.0,-121.5 L 75.0,-118.3 L 105.0,-116.6 L 135.0,-117.2 L 165.0,-119.9 L 195.0,-123.1 L 225.0,-125.3 L 255.0,-125.1 L 285.0,-122.8 L 315.0,-119.5 L 345.0,-117.0 L 375.0,-116.7" fill="none" stroke="#10b981" stroke-width="0.8" opacity="0.22" /><path d="M -405.0,-94.6 L -375.0,-96.5 L -345.0,-99.7 L -315.0,-102.5 L -285.0,-103.5 L -255.0,-102.0 L -225.0,-98.9 L -195.0,-95.9 L -165.0,-94.5 L -135.0,-95.5 L -105.0,-98.4 L -75.0,-101.6 L -45.0,-103.4 L -15.0,-102.8 L 15.0,-100.2 L 45.0,-96.9 L 75.0,-94.8 L 105.0,-94.9 L 135.0,-97.2 L 165.0,-100.5 L 195.0,-103.0 L 225.0,-103.3 L 255.0,-101.4 L 285.0,-98.1 L 315.0,-95.3 L 345.0,-94.5 L 375.0,-96.1" fill="none" stroke="#10b981" stroke-width="0.8" opacity="0.22" /><path d="M -405.0,-74.0 L -375.0,-77.0 L -345.0,-80.1 L -315.0,-81.5 L -285.0,-80.5 L -255.0,-77.6 L -225.0,-74.4 L -195.0,-72.6 L -165.0,-73.2 L -135.0,-75.8 L -105.0,-79.1 L -75.0,-81.2 L -45.0,-81.1 L -15.0,-78.8 L 15.0,-75.5 L 45.0,-73.0 L 75.0,-72.7 L 105.0,-74.6 L 135.0,-77.9 L 165.0,-80.6 L 195.0,-81.5 L 225.0,-79.9 L 255.0,-76.8 L 285.0,-73.8 L 315.0,-72.5 L 345.0,-73.6 L 375.0,-76.6" fill="none" stroke="#10b981" stroke-width="0.8" opacity="0.22" /><path d="M -405.0,-54.4 L -375.0,-57.6 L -345.0,-59.4 L -315.0,-58.9 L -285.0,-56.3 L -255.0,-53.0 L -225.0,-50.8 L -195.0,-50.8 L -165.0,-53.1 L -135.0,-56.4 L -105.0,-59.0 L -75.0,-59.4 L -45.0,-57.4 L -15.0,-54.2 L 15.0,-51.4 L 45.0,-50.5 L 75.0,-52.1 L 105.0,-55.2 L 135.0,-58.2 L 165.0,-59.5 L 195.0,-58.4 L 225.0,-55.4 L 255.0,-52.3 L 285.0,-50.6 L 315.0,-51.2 L 345.0,-53.9 L 375.0,-57.2" fill="none" stroke="#10b981" stroke-width="0.8" opacity="0.22" /><path d="M -405.0,-35.0 L -375.0,-37.2 L -345.0,-37.2 L -315.0,-34.9 L -285.0,-31.6 L -255.0,-29.1 L -225.0,-28.6 L -195.0,-30.6 L -165.0,-33.8 L -135.0,-36.6 L -105.0,-37.5 L -75.0,-36.0 L -45.0,-32.8 L -15.0,-29.8 L 15.0,-28.5 L 45.0,-29.6 L 75.0,-32.5 L 105.0,-35.7 L 135.0,-37.4 L 165.0,-36.8 L 195.0,-34.1 L 225.0,-30.8 L 255.0,-28.7 L 285.0,-28.9 L 315.0,-31.3 L 345.0,-34.6 L 375.0,-37.0" fill="none" stroke="#10b981" stroke-width="0.8" opacity="0.22" /><path d="M -405.0,-14.9 L -375.0,-15.4 L -345.0,-13.5 L -315.0,-10.3 L -285.0,-7.4 L -255.0,-6.5 L -225.0,-8.0 L -195.0,-11.1 L -165.0,-14.1 L -135.0,-15.5 L -105.0,-14.4 L -75.0,-11.5 L -45.0,-8.3 L -15.0,-6.6 L 15.0,-7.2 L 45.0,-9.9 L 75.0,-13.1 L 105.0,-15.3 L 135.0,-15.1 L 165.0,-12.8 L 195.0,-9.5 L 225.0,-7.0 L 255.0,-6.7 L 285.0,-8.7 L 315.0,-11.9 L 345.0,-14.7 L 375.0,-15.5" fill="none" stroke="#10b981" stroke-width="0.8" opacity="0.22" /><path d="M -405.0,6.5 L -375.0,8.0 L -345.0,11.1 L -315.0,14.1 L -285.0,15.5 L -255.0,14.5 L -225.0,11.6 L -195.0,8.4 L -165.0,6.6 L -135.0,7.2 L -105.0,9.8 L -75.0,13.1 L -45.0,15.2 L -15.0,15.1 L 15.0,12.8 L 45.0,9.5 L 75.0,7.0 L 105.0,6.7 L 135.0,8.6 L 165.0,11.9 L 195.0,14.7 L 225.0,15.5 L 255.0,13.9 L 285.0,10.7 L 315.0,7.7 L 345.0,6.5 L 375.0,7.7" fill="none" stroke="#10b981" stroke-width="0.8" opacity="0.22" /><path d="M -405.0,29.5 L -375.0,32.4 L -345.0,35.6 L -315.0,37.4 L -285.0,36.8 L -255.0,34.2 L -225.0,30.9 L -195.0,28.8 L -165.0,28.9 L -135.0,31.2 L -105.0,34.5 L -75.0,37.0 L -45.0,37.3 L -15.0,35.4 L 15.0,32.1 L 45.0,29.4 L 75.0,28.5 L 105.0,30.1 L 135.0,33.2 L 165.0,36.2 L 195.0,37.5 L 225.0,36.4 L 255.0,33.4 L 285.0,30.2 L 315.0,28.6 L 345.0,29.3 L 375.0,32.0" fill="none" stroke="#10b981" stroke-width="0.8" opacity="0.22" /><path d="M -405.0,53.7 L -375.0,57.0 L -345.0,59.2 L -315.0,59.2 L -285.0,56.9 L -255.0,53.6 L -225.0,51.0 L -195.0,50.6 L -165.0,52.6 L -135.0,55.8 L -105.0,58.6 L -75.0,59.5 L -45.0,57.9 L -15.0,54.8 L 15.0,51.8 L 45.0,50.5 L 75.0,51.6 L 105.0,54.6 L 135.0,57.7 L 165.0,59.4 L 195.0,58.8 L 225.0,56.1 L 255.0,52.8 L 285.0,50.7 L 315.0,50.9 L 345.0,53.3 L 375.0,56.6" fill="none" stroke="#10b981" stroke-width="0.8" opacity="0.22" /><path d="M -405.0,78.4 L -375.0,80.9 L -345.0,81.4 L -315.0,79.4 L -285.0,76.2 L -255.0,73.4 L -225.0,72.5 L -195.0,74.0 L -165.0,77.2 L -135.0,80.2 L -105.0,81.5 L -75.0,80.4 L -45.0,77.5 L -15.0,74.3 L 15.0,72.6 L 45.0,73.2 L 75.0,75.9 L 105.0,79.2 L 135.0,81.3 L 165.0,81.1 L 195.0,78.7 L 225.0,75.4 L 255.0,73.0 L 285.0,72.7 L 315.0,74.7 L 345.0,78.0 L 375.0,80.7" fill="none" stroke="#10b981" stroke-width="0.8" opacity="0.22" /><path d="M -405.0,102.6 L -375.0,103.5 L -345.0,102.0 L -315.0,98.9 L -285.0,95.9 L -255.0,94.5 L -225.0,95.6 L -195.0,98.5 L -165.0,101.7 L -135.0,103.4 L -105.0,102.8 L -75.0,100.1 L -45.0,96.9 L -15.0,94.7 L 15.0,94.9 L 45.0,97.2 L 75.0,100.5 L 105.0,103.0 L 135.0,103.3 L 165.0,101.3 L 195.0,98.1 L 225.0,95.3 L 255.0,94.5 L 285.0,96.2 L 315.0,99.3 L 345.0,102.3 L 375.0,103.5" fill="none" stroke="#10b981" stroke-width="0.8" opacity="0.22" /><path d="M -405.0,125.5 L -375.0,124.5 L -345.0,121.6 L -315.0,118.4 L -285.0,116.6 L -255.0,117.2 L -225.0,119.8 L -195.0,123.1 L -165.0,125.2 L -135.0,125.1 L -105.0,122.8 L -75.0,119.5 L -45.0,117.0 L -15.0,116.7 L 15.0,118.6 L 45.0,121.9 L 75.0,124.7 L 105.0,125.5 L 135.0,123.9 L 165.0,120.7 L 195.0,117.7 L 225.0,116.5 L 255.0,117.7 L 285.0,120.6 L 315.0,123.8 L 345.0,125.4 L 375.0,124.7" fill="none" stroke="#10b981" stroke-width="0.8" opacity="0.22" /><path d="M -405.0,146.8 L -375.0,144.2 L -345.0,140.9 L -315.0,138.8 L -285.0,138.9 L -255.0,141.2 L -225.0,144.5 L -195.0,147.0 L -165.0,147.3 L -135.0,145.4 L -105.0,142.1 L -75.0,139.4 L -45.0,138.5 L -15.0,140.1 L 15.0,143.2 L 45.0,146.2 L 75.0,147.5 L 105.0,146.4 L 135.0,143.4 L 165.0,140.2 L 195.0,138.6 L 225.0,139.3 L 255.0,142.0 L 285.0,145.2 L 315.0,147.3 L 345.0,147.1 L 375.0,144.6" fill="none" stroke="#10b981" stroke-width="0.8" opacity="0.22" /><path d="M -405.0,166.9 L -375.0,163.6 L -345.0,161.0 L -315.0,160.6 L -285.0,162.6 L -255.0,165.8 L -225.0,168.6 L -195.0,169.5 L -165.0,167.9 L -135.0,164.8 L -105.0,161.8 L -75.0,160.5 L -45.0,161.6 L -15.0,164.6 L 15.0,167.7 L 45.0,169.4 L 75.0,168.8 L 105.0,166.1 L 135.0,162.8 L 165.0,160.7 L 195.0,160.9 L 225.0,163.3 L 255.0,166.6 L 285.0,169.0 L 315.0,169.3 L 345.0,167.3 L 375.0,164.0" fill="none" stroke="#10b981" stroke-width="0.8" opacity="0.22" />

      <!-- Vertical Security Thread -->
      
    <g opacity="0.6">
      <rect x="-161.39999999999998" y="-210.0" width="6" height="420" fill="#0f766e" />
      <line x1="-158.39999999999998" y1="-205.0" x2="-158.39999999999998" y2="205.0" stroke="#6ee7b7" stroke-width="2.5" stroke-dasharray="14 10" />
    </g>
    

      <!-- Watermark Oval -->
      
    <g opacity="0.35">
      <ellipse cx="193.59999999999997" cy="0" rx="55" ry="75" fill="none" stroke="#34d399" stroke-width="1.5" stroke-dasharray="6 4" />
      <ellipse cx="193.59999999999997" cy="0" rx="42" ry="58" fill="none" stroke="#34d399" stroke-width="1" />
      <ellipse cx="193.59999999999997" cy="0" rx="28" ry="40" fill="none" stroke="#34d399" stroke-width="0.8" stroke-dasharray="4 4" />
    </g>
    

      <!-- Central Guilloche Medallion -->
      <g opacity="0.75">
        <circle cx="0" cy="0" r="95" fill="#022c22" stroke="#059669" stroke-width="2" />
        <path d="M 60.0,0.0 L 58.5,2.6 L 54.2,4.7 L 47.2,6.2 L 38.0,6.7 L 27.0,6.0 L 15.0,4.0 L 2.5,0.8 L -9.8,-3.6 L -21.2,-8.8 L -31.2,-14.5 L -39.2,-20.4 L -45.0,-26.0 L -48.3,-30.7 L -49.0,-34.3 L -47.2,-36.2 L -43.2,-36.2 L -37.3,-34.2 L -30.0,-30.0 L -21.8,-23.8 L -13.2,-15.7 L -4.8,-6.2 L 3.0,4.3 L 9.7,15.2 L 15.0,26.0 L 18.7,36.0 L 20.8,44.5 L 21.2,51.2 L 20.2,55.5 L 18.0,57.2 L 15.0,56.0 L 11.5,52.0 L 8.0,45.3 L 4.8,36.2 L 2.2,25.3 L 0.6,13.0 L 0.0,0.0 L 0.6,-13.0 L 2.2,-25.3 L 4.8,-36.2 L 8.0,-45.3 L 11.5,-52.0 L 15.0,-56.0 L 18.0,-57.2 L 20.2,-55.5 L 21.2,-51.2 L 20.8,-44.5 L 18.7,-36.0 L 15.0,-26.0 L 9.7,-15.2 L 3.0,-4.3 L -4.8,6.2 L -13.2,15.7 L -21.8,23.8 L -30.0,30.0 L -37.3,34.2 L -43.2,36.2 L -47.2,36.2 L -49.0,34.3 L -48.3,30.7 L -45.0,26.0 L -39.2,20.4 L -31.2,14.5 L -21.2,8.8 L -9.8,3.6 L 2.5,-0.8 L 15.0,-4.0 L 27.0,-6.0 L 38.0,-6.7 L 47.2,-6.2 L 54.2,-4.7 L 58.5,-2.6 L 60.0,-0.0 L 58.5,2.6 L 54.2,4.7 L 47.2,6.2 L 38.0,6.7 L 27.0,6.0 L 15.0,4.0 L 2.5,0.8 L -9.8,-3.6 L -21.2,-8.8 L -31.2,-14.5 L -39.2,-20.4 L -45.0,-26.0 L -48.3,-30.7 L -49.0,-34.3 L -47.2,-36.2 L -43.2,-36.2 L -37.3,-34.2 L -30.0,-30.0 L -21.8,-23.8 L -13.2,-15.7 L -4.8,-6.2 L 3.0,4.3 L 9.7,15.2 L 15.0,26.0 L 18.7,36.0 L 20.8,44.5 L 21.2,51.2 L 20.2,55.5 L 18.0,57.2 L 15.0,56.0 L 11.5,52.0 L 8.0,45.3 L 4.8,36.2 L 2.2,25.3 L 0.6,13.0 L 0.0,0.0 L 0.6,-13.0 L 2.2,-25.3 L 4.8,-36.2 L 8.0,-45.3 L 11.5,-52.0 L 15.0,-56.0 L 18.0,-57.2 L 20.2,-55.5 L 21.2,-51.2 L 20.8,-44.5 L 18.7,-36.0 L 15.0,-26.0 Z" fill="none" stroke="#34d399" stroke-width="1.4" opacity="0.9" />
        <path d="M 50.0,0.0 L 48.8,4.9 L 45.2,9.4 L 39.4,12.9 L 31.8,15.2 L 22.9,15.9 L 13.1,14.9 L 3.0,12.2 L -6.7,7.8 L -15.6,2.0 L -23.1,-4.8 L -29.0,-12.2 L -32.8,-19.8 L -34.6,-27.0 L -34.3,-33.2 L -32.0,-38.0 L -28.1,-41.1 L -22.9,-42.1 L -16.8,-40.8 L -10.4,-37.3 L -4.2,-31.6 L 1.4,-24.1 L 6.0,-15.0 L 9.2,-4.9 L 10.8,5.6 L 10.8,16.1 L 9.2,25.8 L 6.1,34.3 L 1.9,41.1 L -3.0,45.8 L -8.3,48.2 L -13.4,48.2 L -17.8,45.8 L -21.2,41.2 L -23.1,34.8 L -23.3,27.0 L -21.7,18.2 L -18.2,9.1 L -12.9,0.1 L -6.1,-8.1 L 1.8,-15.2 L 10.4,-20.7 L 19.2,-24.4 L 27.6,-26.1 L 35.0,-26.0 L 41.0,-24.1 L 45.2,-20.6 L 47.2,-16.1 L 46.8,-10.8 L 44.1,-5.3 L 39.1,-0.1 L 32.0,4.4 L 23.3,7.8 L 13.4,9.8 L 2.8,10.2 L -7.8,9.0 L -17.8,6.2 L -26.8,2.0 L -34.3,-3.2 L -39.8,-9.1 L -43.1,-15.1 L -44.1,-20.9 L -42.8,-25.8 L -39.4,-29.5 L -34.2,-31.6 L -27.6,-31.8 L -20.0,-30.0 L -12.0,-26.1 L -4.2,-20.3 L 3.0,-12.9 L 9.2,-4.2 L 13.9,5.3 L 16.9,15.1 L 18.2,24.6 L 17.7,33.2 L 15.6,40.4 L 12.2,45.8 L 7.8,49.0 L 2.8,49.8 L -2.1,48.2 L -6.7,44.2 L -10.4,38.0 L -12.9,30.1 L -13.9,20.9 L -13.2,10.8 L -10.8,0.5 L -6.8,-9.4 L -1.4,-18.4 L 5.0,-26.0 L 12.0,-31.8 L 19.2,-35.6 L 26.0,-37.3 L 31.8,-36.8 L 36.3,-34.3 L 39.1,-30.1 L 39.8,-24.6 L 38.3,-18.2 L 34.6,-11.4 L 28.8,-4.8 L 21.2,1.2 L 12.2,6.2 L 2.1,9.8 L -8.3,11.8 L -18.6,12.2 L -28.1,10.9 L -36.3,8.1 L -42.8,4.2 L -47.2,-0.5 L -49.2,-5.6 L -48.8,-10.6 L -46.0,-15.0 L -41.0,-18.4 L -34.2,-20.3 L -26.0,-20.7 L -16.8,-19.2 L -7.4,-15.9 L 1.9,-10.9 L 10.4,-4.4 L 17.7,3.2 L 23.3,11.4 L 27.2,19.8 Z" fill="none" stroke="#6ee7b7" stroke-width="1.1" opacity="0.7" />
        <circle cx="0" cy="0" r="28" fill="#064e3b" stroke="#34d399" stroke-width="1.5" />
      </g>

      <!-- Corner Rosettes -->
      
        <g>
          <polygon points="-375.0,-175.0 -385.8,-171.2 -380.9,-160.9 -391.2,-165.8 -395.0,-155.0 -398.8,-165.8 -409.1,-160.9 -404.2,-171.2 -415.0,-175.0 -404.2,-178.8 -409.1,-189.1 -398.8,-184.2 -395.0,-195.0 -391.2,-184.2 -380.9,-189.1 -385.8,-178.8 -375.0,-175.0 -385.8,-171.2" fill="#022c22" stroke="#10b981" stroke-width="1.2" opacity="0.9" />
          <circle cx="-395.0" cy="-175.0" r="7" fill="#047857" stroke="#34d399" stroke-width="1" />
        </g>
        
        <g>
          <polygon points="415.0,-175.0 404.2,-171.2 409.1,-160.9 398.8,-165.8 395.0,-155.0 391.2,-165.8 380.9,-160.9 385.8,-171.2 375.0,-175.0 385.8,-178.8 380.9,-189.1 391.2,-184.2 395.0,-195.0 398.8,-184.2 409.1,-189.1 404.2,-178.8 415.0,-175.0 404.2,-171.2" fill="#022c22" stroke="#10b981" stroke-width="1.2" opacity="0.9" />
          <circle cx="395.0" cy="-175.0" r="7" fill="#047857" stroke="#34d399" stroke-width="1" />
        </g>
        
        <g>
          <polygon points="-375.0,175.0 -385.8,178.8 -380.9,189.1 -391.2,184.2 -395.0,195.0 -398.8,184.2 -409.1,189.1 -404.2,178.8 -415.0,175.0 -404.2,171.2 -409.1,160.9 -398.8,165.8 -395.0,155.0 -391.2,165.8 -380.9,160.9 -385.8,171.2 -375.0,175.0 -385.8,178.8" fill="#022c22" stroke="#10b981" stroke-width="1.2" opacity="0.9" />
          <circle cx="-395.0" cy="175.0" r="7" fill="#047857" stroke="#34d399" stroke-width="1" />
        </g>
        
        <g>
          <polygon points="415.0,175.0 404.2,178.8 409.1,189.1 398.8,184.2 395.0,195.0 391.2,184.2 380.9,189.1 385.8,178.8 375.0,175.0 385.8,171.2 380.9,160.9 391.2,165.8 395.0,155.0 398.8,165.8 409.1,160.9 404.2,171.2 415.0,175.0 404.2,178.8" fill="#022c22" stroke="#10b981" stroke-width="1.2" opacity="0.9" />
          <circle cx="395.0" cy="175.0" r="7" fill="#047857" stroke="#34d399" stroke-width="1" />
        </g>
        
    </g>
    
    <g id="banknote_mid" transform="translate(1580, 430) rotate(-6.0)" filter="url(#noteShadow)">
      <!-- Note Base Paper -->
      <rect x="-460.0" y="-230.0" width="920" height="460" rx="12" fill="url(#noteBase2)" stroke="#1e293b" stroke-width="2" />
      
      <!-- Inner Parchment Field -->
      <rect x="-446.0" y="-216.0" width="892" height="432" rx="8" fill="#064e3b" opacity="0.35" stroke="#047857" stroke-width="1.5" />
      <rect x="-438.0" y="-208.0" width="876" height="416" rx="6" fill="none" stroke="#34d399" stroke-width="1.2" stroke-dasharray="8 4" opacity="0.6" />

      <!-- Lathe Micro-Lines -->
      <path d="M -425.0,-175.0 L -395.0,-171.9 L -365.0,-170.5 L -335.0,-171.5 L -305.0,-174.4 L -275.0,-177.6 L -245.0,-179.4 L -215.0,-178.9 L -185.0,-176.3 L -155.0,-173.0 L -125.0,-170.8 L -95.0,-170.8 L -65.0,-173.1 L -35.0,-176.4 L -5.0,-179.0 L 25.0,-179.4 L 55.0,-177.4 L 85.0,-174.2 L 115.0,-171.4 L 145.0,-170.5 L 175.0,-172.1 L 205.0,-175.2 L 235.0,-178.2 L 265.0,-179.5 L 295.0,-178.4 L 325.0,-175.4 L 355.0,-172.3 L 385.0,-170.6 L 415.0,-171.2" fill="none" stroke="#10b981" stroke-width="0.8" opacity="0.22" /><path d="M -425.0,-149.1 L -395.0,-147.3 L -365.0,-147.8 L -335.0,-150.4 L -305.0,-153.7 L -275.0,-155.9 L -245.0,-155.8 L -215.0,-153.6 L -185.0,-150.3 L -155.0,-147.7 L -125.0,-147.3 L -95.0,-149.2 L -65.0,-152.5 L -35.0,-155.3 L -5.0,-156.1 L 25.0,-154.6 L 55.0,-151.5 L 85.0,-148.5 L 115.0,-147.2 L 145.0,-148.3 L 175.0,-151.2 L 205.0,-154.4 L 235.0,-156.1 L 265.0,-155.5 L 295.0,-152.8 L 325.0,-149.5 L 355.0,-147.4 L 385.0,-147.6 L 415.0,-150.0" fill="none" stroke="#10b981" stroke-width="0.8" opacity="0.22" /><path d="M -425.0,-124.1 L -395.0,-124.2 L -365.0,-126.4 L -335.0,-129.7 L -305.0,-132.3 L -275.0,-132.7 L -245.0,-130.8 L -215.0,-127.6 L -185.0,-124.8 L -155.0,-123.9 L -125.0,-125.3 L -95.0,-128.4 L -65.0,-131.5 L -35.0,-132.8 L -5.0,-131.8 L 25.0,-128.9 L 55.0,-125.7 L 85.0,-123.9 L 115.0,-124.5 L 145.0,-127.2 L 175.0,-130.5 L 205.0,-132.6 L 235.0,-132.4 L 265.0,-130.1 L 295.0,-126.8 L 325.0,-124.3 L 355.0,-124.0 L 385.0,-126.0 L 415.0,-129.3" fill="none" stroke="#10b981" stroke-width="0.8" opacity="0.22" /><path d="M -425.0,-100.6 L -395.0,-102.5 L -365.0,-105.7 L -335.0,-108.5 L -305.0,-109.5 L -275.0,-108.0 L -245.0,-104.9 L -215.0,-101.9 L -185.0,-100.5 L -155.0,-101.5 L -125.0,-104.4 L -95.0,-107.6 L -65.0,-109.4 L -35.0,-108.8 L -5.0,-106.2 L 25.0,-102.9 L 55.0,-100.8 L 85.0,-100.9 L 115.0,-103.2 L 145.0,-106.5 L 175.0,-109.0 L 205.0,-109.3 L 235.0,-107.4 L 265.0,-104.1 L 295.0,-101.3 L 325.0,-100.5 L 355.0,-102.1 L 385.0,-105.3 L 415.0,-108.3" fill="none" stroke="#10b981" stroke-width="0.8" opacity="0.22" /><path d="M -425.0,-78.6 L -395.0,-81.7 L -365.0,-84.8 L -335.0,-86.2 L -305.0,-85.1 L -275.0,-82.3 L -245.0,-79.1 L -215.0,-77.3 L -185.0,-77.8 L -155.0,-80.4 L -125.0,-83.7 L -95.0,-85.9 L -65.0,-85.8 L -35.0,-83.5 L -5.0,-80.2 L 25.0,-77.7 L 55.0,-77.3 L 85.0,-79.3 L 115.0,-82.5 L 145.0,-85.3 L 175.0,-86.1 L 205.0,-84.6 L 235.0,-81.4 L 265.0,-78.4 L 295.0,-77.2 L 325.0,-78.3 L 355.0,-81.3 L 385.0,-84.4 L 415.0,-86.1" fill="none" stroke="#10b981" stroke-width="0.8" opacity="0.22" /><path d="M -425.0,-57.7 L -395.0,-60.9 L -365.0,-62.7 L -335.0,-62.2 L -305.0,-59.6 L -275.0,-56.3 L -245.0,-54.1 L -215.0,-54.2 L -185.0,-56.5 L -155.0,-59.8 L -125.0,-62.3 L -95.0,-62.7 L -65.0,-60.7 L -35.0,-57.5 L -5.0,-54.7 L 25.0,-53.9 L 55.0,-55.4 L 85.0,-58.5 L 115.0,-61.5 L 145.0,-62.8 L 175.0,-61.7 L 205.0,-58.8 L 235.0,-55.6 L 265.0,-53.9 L 295.0,-54.6 L 325.0,-57.3 L 355.0,-60.5 L 385.0,-62.6 L 415.0,-62.4" fill="none" stroke="#10b981" stroke-width="0.8" opacity="0.22" /><path d="M -425.0,-37.0 L -395.0,-39.2 L -365.0,-39.2 L -335.0,-36.9 L -305.0,-33.6 L -275.0,-31.1 L -245.0,-30.6 L -215.0,-32.6 L -185.0,-35.8 L -155.0,-38.6 L -125.0,-39.5 L -95.0,-38.0 L -65.0,-34.8 L -35.0,-31.8 L -5.0,-30.5 L 25.0,-31.6 L 55.0,-34.5 L 85.0,-37.7 L 115.0,-39.4 L 145.0,-38.8 L 175.0,-36.1 L 205.0,-32.8 L 235.0,-30.7 L 265.0,-30.9 L 295.0,-33.3 L 325.0,-36.6 L 355.0,-39.0 L 385.0,-39.3 L 415.0,-37.3" fill="none" stroke="#10b981" stroke-width="0.8" opacity="0.22" /><path d="M -425.0,-15.6 L -395.0,-16.0 L -365.0,-14.1 L -335.0,-10.9 L -305.0,-8.1 L -275.0,-7.2 L -245.0,-8.7 L -215.0,-11.8 L -185.0,-14.8 L -155.0,-16.2 L -125.0,-15.1 L -95.0,-12.2 L -65.0,-9.0 L -35.0,-7.2 L -5.0,-7.9 L 25.0,-10.5 L 55.0,-13.8 L 85.0,-15.9 L 115.0,-15.8 L 145.0,-13.4 L 175.0,-10.1 L 205.0,-7.7 L 235.0,-7.3 L 265.0,-9.3 L 295.0,-12.6 L 325.0,-15.4 L 355.0,-16.1 L 385.0,-14.5 L 415.0,-11.4" fill="none" stroke="#10b981" stroke-width="0.8" opacity="0.22" /><path d="M -425.0,7.2 L -395.0,8.7 L -365.0,11.7 L -335.0,14.8 L -305.0,16.2 L -275.0,15.1 L -245.0,12.2 L -215.0,9.0 L -185.0,7.3 L -155.0,7.8 L -125.0,10.5 L -95.0,13.8 L -65.0,15.9 L -35.0,15.8 L -5.0,13.5 L 25.0,10.2 L 55.0,7.7 L 85.0,7.3 L 115.0,9.3 L 145.0,12.6 L 175.0,15.3 L 205.0,16.1 L 235.0,14.5 L 265.0,11.4 L 295.0,8.4 L 325.0,7.2 L 355.0,8.3 L 385.0,11.3 L 415.0,14.5" fill="none" stroke="#10b981" stroke-width="0.8" opacity="0.22" /><path d="M -425.0,31.5 L -395.0,34.4 L -365.0,37.6 L -335.0,39.4 L -305.0,38.8 L -275.0,36.2 L -245.0,32.9 L -215.0,30.8 L -185.0,30.9 L -155.0,33.2 L -125.0,36.5 L -95.0,39.0 L -65.0,39.3 L -35.0,37.4 L -5.0,34.1 L 25.0,31.4 L 55.0,30.5 L 85.0,32.1 L 115.0,35.2 L 145.0,38.2 L 175.0,39.5 L 205.0,38.4 L 235.0,35.4 L 265.0,32.2 L 295.0,30.6 L 325.0,31.3 L 355.0,34.0 L 385.0,37.2 L 415.0,39.3" fill="none" stroke="#10b981" stroke-width="0.8" opacity="0.22" /><path d="M -425.0,57.1 L -395.0,60.4 L -365.0,62.6 L -335.0,62.5 L -305.0,60.2 L -275.0,56.9 L -245.0,54.4 L -215.0,54.0 L -185.0,55.9 L -155.0,59.2 L -125.0,62.0 L -95.0,62.8 L -65.0,61.3 L -35.0,58.1 L -5.0,55.1 L 25.0,53.8 L 55.0,55.0 L 85.0,57.9 L 115.0,61.1 L 145.0,62.8 L 175.0,62.1 L 205.0,59.4 L 235.0,56.1 L 265.0,54.1 L 295.0,54.3 L 325.0,56.7 L 355.0,59.9 L 385.0,62.4 L 415.0,62.6" fill="none" stroke="#10b981" stroke-width="0.8" opacity="0.22" /><path d="M -425.0,83.1 L -395.0,85.6 L -365.0,86.0 L -335.0,84.1 L -305.0,80.9 L -275.0,78.1 L -245.0,77.2 L -215.0,78.7 L -185.0,81.8 L -155.0,84.8 L -125.0,86.2 L -95.0,85.1 L -65.0,82.2 L -35.0,79.0 L -5.0,77.2 L 25.0,77.9 L 55.0,80.6 L 85.0,83.8 L 115.0,85.9 L 145.0,85.8 L 175.0,83.4 L 205.0,80.1 L 235.0,77.6 L 265.0,77.4 L 295.0,79.4 L 325.0,82.6 L 355.0,85.4 L 385.0,86.1 L 415.0,84.5" fill="none" stroke="#10b981" stroke-width="0.8" opacity="0.22" /><path d="M -425.0,108.6 L -395.0,109.5 L -365.0,108.0 L -335.0,104.9 L -305.0,101.9 L -275.0,100.5 L -245.0,101.6 L -215.0,104.5 L -185.0,107.7 L -155.0,109.4 L -125.0,108.8 L -95.0,106.1 L -65.0,102.9 L -35.0,100.7 L -5.0,100.9 L 25.0,103.2 L 55.0,106.5 L 85.0,109.0 L 115.0,109.3 L 145.0,107.3 L 175.0,104.1 L 205.0,101.3 L 235.0,100.5 L 265.0,102.2 L 295.0,105.3 L 325.0,108.3 L 355.0,109.5 L 385.0,108.3 L 415.0,105.3" fill="none" stroke="#10b981" stroke-width="0.8" opacity="0.22" /><path d="M -425.0,132.8 L -395.0,131.8 L -365.0,128.9 L -335.0,125.7 L -305.0,123.9 L -275.0,124.5 L -245.0,127.1 L -215.0,130.4 L -185.0,132.6 L -155.0,132.5 L -125.0,130.1 L -95.0,126.8 L -65.0,124.3 L -35.0,124.0 L -5.0,126.0 L 25.0,129.2 L 55.0,132.0 L 85.0,132.8 L 115.0,131.2 L 145.0,128.1 L 175.0,125.1 L 205.0,123.8 L 235.0,125.0 L 265.0,128.0 L 295.0,131.1 L 325.0,132.8 L 355.0,132.1 L 385.0,129.3 L 415.0,126.1" fill="none" stroke="#10b981" stroke-width="0.8" opacity="0.22" /><path d="M -425.0,155.5 L -395.0,152.9 L -365.0,149.6 L -335.0,147.4 L -305.0,147.5 L -275.0,149.8 L -245.0,153.1 L -215.0,155.6 L -185.0,156.0 L -155.0,154.0 L -125.0,150.8 L -95.0,148.0 L -65.0,147.2 L -35.0,148.8 L -5.0,151.9 L 25.0,154.9 L 55.0,156.2 L 85.0,155.0 L 115.0,152.1 L 145.0,148.9 L 175.0,147.2 L 205.0,147.9 L 235.0,150.6 L 265.0,153.9 L 295.0,156.0 L 325.0,155.7 L 355.0,153.3 L 385.0,150.0 L 415.0,147.6" fill="none" stroke="#10b981" stroke-width="0.8" opacity="0.22" /><path d="M -425.0,176.9 L -395.0,173.6 L -365.0,171.0 L -335.0,170.6 L -305.0,172.6 L -275.0,175.8 L -245.0,178.6 L -215.0,179.5 L -185.0,177.9 L -155.0,174.8 L -125.0,171.8 L -95.0,170.5 L -65.0,171.6 L -35.0,174.6 L -5.0,177.7 L 25.0,179.4 L 55.0,178.8 L 85.0,176.1 L 115.0,172.8 L 145.0,170.7 L 175.0,170.9 L 205.0,173.3 L 235.0,176.6 L 265.0,179.0 L 295.0,179.3 L 325.0,177.3 L 355.0,174.0 L 385.0,171.3 L 415.0,170.6" fill="none" stroke="#10b981" stroke-width="0.8" opacity="0.22" />

      <!-- Vertical Security Thread -->
      
    <g opacity="0.6">
      <rect x="-168.59999999999997" y="-220.0" width="6" height="440" fill="#0f766e" />
      <line x1="-165.59999999999997" y1="-215.0" x2="-165.59999999999997" y2="215.0" stroke="#6ee7b7" stroke-width="2.5" stroke-dasharray="14 10" />
    </g>
    

      <!-- Watermark Oval -->
      
    <g opacity="0.35">
      <ellipse cx="202.39999999999998" cy="0" rx="55" ry="75" fill="none" stroke="#34d399" stroke-width="1.5" stroke-dasharray="6 4" />
      <ellipse cx="202.39999999999998" cy="0" rx="42" ry="58" fill="none" stroke="#34d399" stroke-width="1" />
      <ellipse cx="202.39999999999998" cy="0" rx="28" ry="40" fill="none" stroke="#34d399" stroke-width="0.8" stroke-dasharray="4 4" />
    </g>
    

      <!-- Central Guilloche Medallion -->
      <g opacity="0.75">
        <circle cx="0" cy="0" r="95" fill="#022c22" stroke="#059669" stroke-width="2" />
        <path d="M 60.0,0.0 L 58.5,2.6 L 54.2,4.7 L 47.2,6.2 L 38.0,6.7 L 27.0,6.0 L 15.0,4.0 L 2.5,0.8 L -9.8,-3.6 L -21.2,-8.8 L -31.2,-14.5 L -39.2,-20.4 L -45.0,-26.0 L -48.3,-30.7 L -49.0,-34.3 L -47.2,-36.2 L -43.2,-36.2 L -37.3,-34.2 L -30.0,-30.0 L -21.8,-23.8 L -13.2,-15.7 L -4.8,-6.2 L 3.0,4.3 L 9.7,15.2 L 15.0,26.0 L 18.7,36.0 L 20.8,44.5 L 21.2,51.2 L 20.2,55.5 L 18.0,57.2 L 15.0,56.0 L 11.5,52.0 L 8.0,45.3 L 4.8,36.2 L 2.2,25.3 L 0.6,13.0 L 0.0,0.0 L 0.6,-13.0 L 2.2,-25.3 L 4.8,-36.2 L 8.0,-45.3 L 11.5,-52.0 L 15.0,-56.0 L 18.0,-57.2 L 20.2,-55.5 L 21.2,-51.2 L 20.8,-44.5 L 18.7,-36.0 L 15.0,-26.0 L 9.7,-15.2 L 3.0,-4.3 L -4.8,6.2 L -13.2,15.7 L -21.8,23.8 L -30.0,30.0 L -37.3,34.2 L -43.2,36.2 L -47.2,36.2 L -49.0,34.3 L -48.3,30.7 L -45.0,26.0 L -39.2,20.4 L -31.2,14.5 L -21.2,8.8 L -9.8,3.6 L 2.5,-0.8 L 15.0,-4.0 L 27.0,-6.0 L 38.0,-6.7 L 47.2,-6.2 L 54.2,-4.7 L 58.5,-2.6 L 60.0,-0.0 L 58.5,2.6 L 54.2,4.7 L 47.2,6.2 L 38.0,6.7 L 27.0,6.0 L 15.0,4.0 L 2.5,0.8 L -9.8,-3.6 L -21.2,-8.8 L -31.2,-14.5 L -39.2,-20.4 L -45.0,-26.0 L -48.3,-30.7 L -49.0,-34.3 L -47.2,-36.2 L -43.2,-36.2 L -37.3,-34.2 L -30.0,-30.0 L -21.8,-23.8 L -13.2,-15.7 L -4.8,-6.2 L 3.0,4.3 L 9.7,15.2 L 15.0,26.0 L 18.7,36.0 L 20.8,44.5 L 21.2,51.2 L 20.2,55.5 L 18.0,57.2 L 15.0,56.0 L 11.5,52.0 L 8.0,45.3 L 4.8,36.2 L 2.2,25.3 L 0.6,13.0 L 0.0,0.0 L 0.6,-13.0 L 2.2,-25.3 L 4.8,-36.2 L 8.0,-45.3 L 11.5,-52.0 L 15.0,-56.0 L 18.0,-57.2 L 20.2,-55.5 L 21.2,-51.2 L 20.8,-44.5 L 18.7,-36.0 L 15.0,-26.0 Z" fill="none" stroke="#34d399" stroke-width="1.4" opacity="0.9" />
        <path d="M 50.0,0.0 L 48.8,4.9 L 45.2,9.4 L 39.4,12.9 L 31.8,15.2 L 22.9,15.9 L 13.1,14.9 L 3.0,12.2 L -6.7,7.8 L -15.6,2.0 L -23.1,-4.8 L -29.0,-12.2 L -32.8,-19.8 L -34.6,-27.0 L -34.3,-33.2 L -32.0,-38.0 L -28.1,-41.1 L -22.9,-42.1 L -16.8,-40.8 L -10.4,-37.3 L -4.2,-31.6 L 1.4,-24.1 L 6.0,-15.0 L 9.2,-4.9 L 10.8,5.6 L 10.8,16.1 L 9.2,25.8 L 6.1,34.3 L 1.9,41.1 L -3.0,45.8 L -8.3,48.2 L -13.4,48.2 L -17.8,45.8 L -21.2,41.2 L -23.1,34.8 L -23.3,27.0 L -21.7,18.2 L -18.2,9.1 L -12.9,0.1 L -6.1,-8.1 L 1.8,-15.2 L 10.4,-20.7 L 19.2,-24.4 L 27.6,-26.1 L 35.0,-26.0 L 41.0,-24.1 L 45.2,-20.6 L 47.2,-16.1 L 46.8,-10.8 L 44.1,-5.3 L 39.1,-0.1 L 32.0,4.4 L 23.3,7.8 L 13.4,9.8 L 2.8,10.2 L -7.8,9.0 L -17.8,6.2 L -26.8,2.0 L -34.3,-3.2 L -39.8,-9.1 L -43.1,-15.1 L -44.1,-20.9 L -42.8,-25.8 L -39.4,-29.5 L -34.2,-31.6 L -27.6,-31.8 L -20.0,-30.0 L -12.0,-26.1 L -4.2,-20.3 L 3.0,-12.9 L 9.2,-4.2 L 13.9,5.3 L 16.9,15.1 L 18.2,24.6 L 17.7,33.2 L 15.6,40.4 L 12.2,45.8 L 7.8,49.0 L 2.8,49.8 L -2.1,48.2 L -6.7,44.2 L -10.4,38.0 L -12.9,30.1 L -13.9,20.9 L -13.2,10.8 L -10.8,0.5 L -6.8,-9.4 L -1.4,-18.4 L 5.0,-26.0 L 12.0,-31.8 L 19.2,-35.6 L 26.0,-37.3 L 31.8,-36.8 L 36.3,-34.3 L 39.1,-30.1 L 39.8,-24.6 L 38.3,-18.2 L 34.6,-11.4 L 28.8,-4.8 L 21.2,1.2 L 12.2,6.2 L 2.1,9.8 L -8.3,11.8 L -18.6,12.2 L -28.1,10.9 L -36.3,8.1 L -42.8,4.2 L -47.2,-0.5 L -49.2,-5.6 L -48.8,-10.6 L -46.0,-15.0 L -41.0,-18.4 L -34.2,-20.3 L -26.0,-20.7 L -16.8,-19.2 L -7.4,-15.9 L 1.9,-10.9 L 10.4,-4.4 L 17.7,3.2 L 23.3,11.4 L 27.2,19.8 Z" fill="none" stroke="#6ee7b7" stroke-width="1.1" opacity="0.7" />
        <circle cx="0" cy="0" r="28" fill="#064e3b" stroke="#34d399" stroke-width="1.5" />
      </g>

      <!-- Corner Rosettes -->
      
        <g>
          <polygon points="-395.0,-185.0 -405.8,-181.2 -400.9,-170.9 -411.2,-175.8 -415.0,-165.0 -418.8,-175.8 -429.1,-170.9 -424.2,-181.2 -435.0,-185.0 -424.2,-188.8 -429.1,-199.1 -418.8,-194.2 -415.0,-205.0 -411.2,-194.2 -400.9,-199.1 -405.8,-188.8 -395.0,-185.0 -405.8,-181.2" fill="#022c22" stroke="#10b981" stroke-width="1.2" opacity="0.9" />
          <circle cx="-415.0" cy="-185.0" r="7" fill="#047857" stroke="#34d399" stroke-width="1" />
        </g>
        
        <g>
          <polygon points="435.0,-185.0 424.2,-181.2 429.1,-170.9 418.8,-175.8 415.0,-165.0 411.2,-175.8 400.9,-170.9 405.8,-181.2 395.0,-185.0 405.8,-188.8 400.9,-199.1 411.2,-194.2 415.0,-205.0 418.8,-194.2 429.1,-199.1 424.2,-188.8 435.0,-185.0 424.2,-181.2" fill="#022c22" stroke="#10b981" stroke-width="1.2" opacity="0.9" />
          <circle cx="415.0" cy="-185.0" r="7" fill="#047857" stroke="#34d399" stroke-width="1" />
        </g>
        
        <g>
          <polygon points="-395.0,185.0 -405.8,188.8 -400.9,199.1 -411.2,194.2 -415.0,205.0 -418.8,194.2 -429.1,199.1 -424.2,188.8 -435.0,185.0 -424.2,181.2 -429.1,170.9 -418.8,175.8 -415.0,165.0 -411.2,175.8 -400.9,170.9 -405.8,181.2 -395.0,185.0 -405.8,188.8" fill="#022c22" stroke="#10b981" stroke-width="1.2" opacity="0.9" />
          <circle cx="-415.0" cy="185.0" r="7" fill="#047857" stroke="#34d399" stroke-width="1" />
        </g>
        
        <g>
          <polygon points="435.0,185.0 424.2,188.8 429.1,199.1 418.8,194.2 415.0,205.0 411.2,194.2 400.9,199.1 405.8,188.8 395.0,185.0 405.8,181.2 400.9,170.9 411.2,175.8 415.0,165.0 418.8,175.8 429.1,170.9 424.2,181.2 435.0,185.0 424.2,188.8" fill="#022c22" stroke="#10b981" stroke-width="1.2" opacity="0.9" />
          <circle cx="415.0" cy="185.0" r="7" fill="#047857" stroke="#34d399" stroke-width="1" />
        </g>
        
    </g>
    
    <g id="banknote_front" transform="translate(1730, 330) rotate(1.2)" filter="url(#noteShadow)">
      <!-- Note Base Paper -->
      <rect x="-470.0" y="-235.0" width="940" height="470" rx="12" fill="url(#noteBase3)" stroke="#1e293b" stroke-width="2" />
      
      <!-- Inner Parchment Field -->
      <rect x="-456.0" y="-221.0" width="912" height="442" rx="8" fill="#064e3b" opacity="0.35" stroke="#047857" stroke-width="1.5" />
      <rect x="-448.0" y="-213.0" width="896" height="426" rx="6" fill="none" stroke="#34d399" stroke-width="1.2" stroke-dasharray="8 4" opacity="0.6" />

      <!-- Lathe Micro-Lines -->
      <path d="M -435.0,-180.0 L -405.0,-176.9 L -375.0,-175.5 L -345.0,-176.5 L -315.0,-179.4 L -285.0,-182.6 L -255.0,-184.4 L -225.0,-183.9 L -195.0,-181.3 L -165.0,-178.0 L -135.0,-175.8 L -105.0,-175.8 L -75.0,-178.1 L -45.0,-181.4 L -15.0,-184.0 L 15.0,-184.4 L 45.0,-182.4 L 75.0,-179.2 L 105.0,-176.4 L 135.0,-175.5 L 165.0,-177.1 L 195.0,-180.2 L 225.0,-183.2 L 255.0,-184.5 L 285.0,-183.4 L 315.0,-180.4 L 345.0,-177.3 L 375.0,-175.6 L 405.0,-176.2" fill="none" stroke="#10b981" stroke-width="0.8" opacity="0.22" /><path d="M -435.0,-153.5 L -405.0,-151.6 L -375.0,-152.1 L -345.0,-154.7 L -315.0,-158.0 L -285.0,-160.2 L -255.0,-160.2 L -225.0,-157.9 L -195.0,-154.6 L -165.0,-152.1 L -135.0,-151.6 L -105.0,-153.6 L -75.0,-156.8 L -45.0,-159.6 L -15.0,-160.5 L 15.0,-159.0 L 45.0,-155.8 L 75.0,-152.8 L 105.0,-151.5 L 135.0,-152.6 L 165.0,-155.5 L 195.0,-158.7 L 225.0,-160.4 L 255.0,-159.8 L 285.0,-157.1 L 315.0,-153.8 L 345.0,-151.7 L 375.0,-151.9 L 405.0,-154.3" fill="none" stroke="#10b981" stroke-width="0.8" opacity="0.22" /><path d="M -435.0,-127.8 L -405.0,-127.8 L -375.0,-130.1 L -345.0,-133.4 L -315.0,-135.9 L -285.0,-136.4 L -255.0,-134.5 L -225.0,-131.3 L -195.0,-128.4 L -165.0,-127.5 L -135.0,-129.0 L -105.0,-132.1 L -75.0,-135.1 L -45.0,-136.5 L -15.0,-135.4 L 15.0,-132.5 L 45.0,-129.3 L 75.0,-127.6 L 105.0,-128.2 L 135.0,-130.9 L 165.0,-134.1 L 195.0,-136.3 L 225.0,-136.1 L 255.0,-133.8 L 285.0,-130.5 L 315.0,-128.0 L 345.0,-127.7 L 375.0,-129.7 L 405.0,-132.9" fill="none" stroke="#10b981" stroke-width="0.8" opacity="0.22" /><path d="M -435.0,-103.6 L -405.0,-105.5 L -375.0,-108.7 L -345.0,-111.5 L -315.0,-112.5 L -285.0,-111.0 L -255.0,-107.9 L -225.0,-104.9 L -195.0,-103.5 L -165.0,-104.5 L -135.0,-107.4 L -105.0,-110.6 L -75.0,-112.4 L -45.0,-111.8 L -15.0,-109.2 L 15.0,-105.9 L 45.0,-103.8 L 75.0,-103.9 L 105.0,-106.2 L 135.0,-109.5 L 165.0,-112.0 L 195.0,-112.3 L 225.0,-110.4 L 255.0,-107.1 L 285.0,-104.3 L 315.0,-103.5 L 345.0,-105.1 L 375.0,-108.3 L 405.0,-111.3" fill="none" stroke="#10b981" stroke-width="0.8" opacity="0.22" /><path d="M -435.0,-81.0 L -405.0,-84.0 L -375.0,-87.1 L -345.0,-88.5 L -315.0,-87.5 L -285.0,-84.6 L -255.0,-81.4 L -225.0,-79.6 L -195.0,-80.2 L -165.0,-82.8 L -135.0,-86.1 L -105.0,-88.2 L -75.0,-88.1 L -45.0,-85.8 L -15.0,-82.5 L 15.0,-80.0 L 45.0,-79.7 L 75.0,-81.6 L 105.0,-84.9 L 135.0,-87.6 L 165.0,-88.5 L 195.0,-86.9 L 225.0,-83.8 L 255.0,-80.8 L 285.0,-79.5 L 315.0,-80.6 L 345.0,-83.6 L 375.0,-86.8 L 405.0,-88.4" fill="none" stroke="#10b981" stroke-width="0.8" opacity="0.22" /><path d="M -435.0,-59.4 L -405.0,-62.6 L -375.0,-64.4 L -345.0,-63.9 L -315.0,-61.3 L -285.0,-58.0 L -255.0,-55.8 L -225.0,-55.8 L -195.0,-58.1 L -165.0,-61.4 L -135.0,-64.0 L -105.0,-64.4 L -75.0,-62.4 L -45.0,-59.2 L -15.0,-56.4 L 15.0,-55.5 L 45.0,-57.1 L 75.0,-60.2 L 105.0,-63.2 L 135.0,-64.5 L 165.0,-63.4 L 195.0,-60.4 L 225.0,-57.3 L 255.0,-55.6 L 285.0,-56.2 L 315.0,-58.9 L 345.0,-62.2 L 375.0,-64.3 L 405.0,-64.1" fill="none" stroke="#10b981" stroke-width="0.8" opacity="0.22" /><path d="M -435.0,-38.0 L -405.0,-40.2 L -375.0,-40.2 L -345.0,-37.9 L -315.0,-34.6 L -285.0,-32.1 L -255.0,-31.6 L -225.0,-33.6 L -195.0,-36.8 L -165.0,-39.6 L -135.0,-40.5 L -105.0,-39.0 L -75.0,-35.8 L -45.0,-32.8 L -15.0,-31.5 L 15.0,-32.6 L 45.0,-35.5 L 75.0,-38.7 L 105.0,-40.4 L 135.0,-39.8 L 165.0,-37.1 L 195.0,-33.8 L 225.0,-31.7 L 255.0,-31.9 L 285.0,-34.3 L 315.0,-37.6 L 345.0,-40.0 L 375.0,-40.3 L 405.0,-38.3" fill="none" stroke="#10b981" stroke-width="0.8" opacity="0.22" /><path d="M -435.0,-15.9 L -405.0,-16.4 L -375.0,-14.5 L -345.0,-11.3 L -315.0,-8.4 L -285.0,-7.5 L -255.0,-9.0 L -225.0,-12.1 L -195.0,-15.1 L -165.0,-16.5 L -135.0,-15.4 L -105.0,-12.5 L -75.0,-9.3 L -45.0,-7.6 L -15.0,-8.2 L 15.0,-10.9 L 45.0,-14.1 L 75.0,-16.3 L 105.0,-16.1 L 135.0,-13.8 L 165.0,-10.5 L 195.0,-8.0 L 225.0,-7.7 L 255.0,-9.7 L 285.0,-12.9 L 315.0,-15.7 L 345.0,-16.5 L 375.0,-14.8 L 405.0,-11.7" fill="none" stroke="#10b981" stroke-width="0.8" opacity="0.22" /><path d="M -435.0,7.5 L -405.0,9.0 L -375.0,12.1 L -345.0,15.1 L -315.0,16.5 L -285.0,15.5 L -255.0,12.6 L -225.0,9.4 L -195.0,7.6 L -165.0,8.2 L -135.0,10.8 L -105.0,14.1 L -75.0,16.2 L -45.0,16.1 L -15.0,13.8 L 15.0,10.5 L 45.0,8.0 L 75.0,7.7 L 105.0,9.6 L 135.0,12.9 L 165.0,15.7 L 195.0,16.5 L 225.0,14.9 L 255.0,11.7 L 285.0,8.7 L 315.0,7.5 L 345.0,8.7 L 375.0,11.6 L 405.0,14.8" fill="none" stroke="#10b981" stroke-width="0.8" opacity="0.22" /><path d="M -435.0,32.5 L -405.0,35.4 L -375.0,38.6 L -345.0,40.4 L -315.0,39.8 L -285.0,37.2 L -255.0,33.9 L -225.0,31.8 L -195.0,31.9 L -165.0,34.2 L -135.0,37.5 L -105.0,40.0 L -75.0,40.3 L -45.0,38.4 L -15.0,35.1 L 15.0,32.4 L 45.0,31.5 L 75.0,33.1 L 105.0,36.2 L 135.0,39.2 L 165.0,40.5 L 195.0,39.4 L 225.0,36.4 L 255.0,33.2 L 285.0,31.6 L 315.0,32.3 L 345.0,35.0 L 375.0,38.2 L 405.0,40.3" fill="none" stroke="#10b981" stroke-width="0.8" opacity="0.22" /><path d="M -435.0,58.7 L -405.0,62.0 L -375.0,64.2 L -345.0,64.2 L -315.0,61.9 L -285.0,58.6 L -255.0,56.0 L -225.0,55.6 L -195.0,57.6 L -165.0,60.8 L -135.0,63.6 L -105.0,64.5 L -75.0,62.9 L -45.0,59.8 L -15.0,56.8 L 15.0,55.5 L 45.0,56.6 L 75.0,59.6 L 105.0,62.7 L 135.0,64.4 L 165.0,63.8 L 195.0,61.1 L 225.0,57.8 L 255.0,55.7 L 285.0,55.9 L 315.0,58.3 L 345.0,61.6 L 375.0,64.0 L 405.0,64.3" fill="none" stroke="#10b981" stroke-width="0.8" opacity="0.22" /><path d="M -435.0,85.4 L -405.0,87.9 L -375.0,88.4 L -345.0,86.4 L -315.0,83.2 L -285.0,80.4 L -255.0,79.5 L -225.0,81.0 L -195.0,84.2 L -165.0,87.2 L -135.0,88.5 L -105.0,87.4 L -75.0,84.5 L -45.0,81.3 L -15.0,79.6 L 15.0,80.2 L 45.0,82.9 L 75.0,86.2 L 105.0,88.3 L 135.0,88.1 L 165.0,85.7 L 195.0,82.4 L 225.0,80.0 L 255.0,79.7 L 285.0,81.7 L 315.0,85.0 L 345.0,87.7 L 375.0,88.5 L 405.0,86.8" fill="none" stroke="#10b981" stroke-width="0.8" opacity="0.22" /><path d="M -435.0,111.6 L -405.0,112.5 L -375.0,111.0 L -345.0,107.9 L -315.0,104.9 L -285.0,103.5 L -255.0,104.6 L -225.0,107.5 L -195.0,110.7 L -165.0,112.4 L -135.0,111.8 L -105.0,109.1 L -75.0,105.9 L -45.0,103.7 L -15.0,103.9 L 15.0,106.2 L 45.0,109.5 L 75.0,112.0 L 105.0,112.3 L 135.0,110.3 L 165.0,107.1 L 195.0,104.3 L 225.0,103.5 L 255.0,105.2 L 285.0,108.3 L 315.0,111.3 L 345.0,112.5 L 375.0,111.3 L 405.0,108.3" fill="none" stroke="#10b981" stroke-width="0.8" opacity="0.22" /><path d="M -435.0,136.5 L -405.0,135.5 L -375.0,132.6 L -345.0,129.4 L -315.0,127.6 L -285.0,128.2 L -255.0,130.8 L -225.0,134.1 L -195.0,136.2 L -165.0,136.1 L -135.0,133.8 L -105.0,130.5 L -75.0,128.0 L -45.0,127.7 L -15.0,129.6 L 15.0,132.9 L 45.0,135.7 L 75.0,136.5 L 105.0,134.9 L 135.0,131.7 L 165.0,128.7 L 195.0,127.5 L 225.0,128.7 L 255.0,131.6 L 285.0,134.8 L 315.0,136.4 L 345.0,135.7 L 375.0,133.0 L 405.0,129.7" fill="none" stroke="#10b981" stroke-width="0.8" opacity="0.22" /><path d="M -435.0,159.8 L -405.0,157.2 L -375.0,153.9 L -345.0,151.8 L -315.0,151.9 L -285.0,154.2 L -255.0,157.5 L -225.0,160.0 L -195.0,160.3 L -165.0,158.4 L -135.0,155.1 L -105.0,152.4 L -75.0,151.5 L -45.0,153.1 L -15.0,156.2 L 15.0,159.2 L 45.0,160.5 L 75.0,159.4 L 105.0,156.4 L 135.0,153.2 L 165.0,151.6 L 195.0,152.3 L 225.0,155.0 L 255.0,158.2 L 285.0,160.3 L 315.0,160.1 L 345.0,157.6 L 375.0,154.3 L 405.0,151.9" fill="none" stroke="#10b981" stroke-width="0.8" opacity="0.22" /><path d="M -435.0,181.9 L -405.0,178.6 L -375.0,176.0 L -345.0,175.6 L -315.0,177.6 L -285.0,180.8 L -255.0,183.6 L -225.0,184.5 L -195.0,182.9 L -165.0,179.8 L -135.0,176.8 L -105.0,175.5 L -75.0,176.6 L -45.0,179.6 L -15.0,182.7 L 15.0,184.4 L 45.0,183.8 L 75.0,181.1 L 105.0,177.8 L 135.0,175.7 L 165.0,175.9 L 195.0,178.3 L 225.0,181.6 L 255.0,184.0 L 285.0,184.3 L 315.0,182.3 L 345.0,179.0 L 375.0,176.3 L 405.0,175.6" fill="none" stroke="#10b981" stroke-width="0.8" opacity="0.22" />

      <!-- Vertical Security Thread -->
      
    <g opacity="0.6">
      <rect x="-172.2" y="-225.0" width="6" height="450" fill="#0f766e" />
      <line x1="-169.2" y1="-220.0" x2="-169.2" y2="220.0" stroke="#6ee7b7" stroke-width="2.5" stroke-dasharray="14 10" />
    </g>
    

      <!-- Watermark Oval -->
      
    <g opacity="0.35">
      <ellipse cx="206.79999999999995" cy="0" rx="55" ry="75" fill="none" stroke="#34d399" stroke-width="1.5" stroke-dasharray="6 4" />
      <ellipse cx="206.79999999999995" cy="0" rx="42" ry="58" fill="none" stroke="#34d399" stroke-width="1" />
      <ellipse cx="206.79999999999995" cy="0" rx="28" ry="40" fill="none" stroke="#34d399" stroke-width="0.8" stroke-dasharray="4 4" />
    </g>
    

      <!-- Central Guilloche Medallion -->
      <g opacity="0.75">
        <circle cx="0" cy="0" r="95" fill="#022c22" stroke="#059669" stroke-width="2" />
        <path d="M 60.0,0.0 L 58.5,2.6 L 54.2,4.7 L 47.2,6.2 L 38.0,6.7 L 27.0,6.0 L 15.0,4.0 L 2.5,0.8 L -9.8,-3.6 L -21.2,-8.8 L -31.2,-14.5 L -39.2,-20.4 L -45.0,-26.0 L -48.3,-30.7 L -49.0,-34.3 L -47.2,-36.2 L -43.2,-36.2 L -37.3,-34.2 L -30.0,-30.0 L -21.8,-23.8 L -13.2,-15.7 L -4.8,-6.2 L 3.0,4.3 L 9.7,15.2 L 15.0,26.0 L 18.7,36.0 L 20.8,44.5 L 21.2,51.2 L 20.2,55.5 L 18.0,57.2 L 15.0,56.0 L 11.5,52.0 L 8.0,45.3 L 4.8,36.2 L 2.2,25.3 L 0.6,13.0 L 0.0,0.0 L 0.6,-13.0 L 2.2,-25.3 L 4.8,-36.2 L 8.0,-45.3 L 11.5,-52.0 L 15.0,-56.0 L 18.0,-57.2 L 20.2,-55.5 L 21.2,-51.2 L 20.8,-44.5 L 18.7,-36.0 L 15.0,-26.0 L 9.7,-15.2 L 3.0,-4.3 L -4.8,6.2 L -13.2,15.7 L -21.8,23.8 L -30.0,30.0 L -37.3,34.2 L -43.2,36.2 L -47.2,36.2 L -49.0,34.3 L -48.3,30.7 L -45.0,26.0 L -39.2,20.4 L -31.2,14.5 L -21.2,8.8 L -9.8,3.6 L 2.5,-0.8 L 15.0,-4.0 L 27.0,-6.0 L 38.0,-6.7 L 47.2,-6.2 L 54.2,-4.7 L 58.5,-2.6 L 60.0,-0.0 L 58.5,2.6 L 54.2,4.7 L 47.2,6.2 L 38.0,6.7 L 27.0,6.0 L 15.0,4.0 L 2.5,0.8 L -9.8,-3.6 L -21.2,-8.8 L -31.2,-14.5 L -39.2,-20.4 L -45.0,-26.0 L -48.3,-30.7 L -49.0,-34.3 L -47.2,-36.2 L -43.2,-36.2 L -37.3,-34.2 L -30.0,-30.0 L -21.8,-23.8 L -13.2,-15.7 L -4.8,-6.2 L 3.0,4.3 L 9.7,15.2 L 15.0,26.0 L 18.7,36.0 L 20.8,44.5 L 21.2,51.2 L 20.2,55.5 L 18.0,57.2 L 15.0,56.0 L 11.5,52.0 L 8.0,45.3 L 4.8,36.2 L 2.2,25.3 L 0.6,13.0 L 0.0,0.0 L 0.6,-13.0 L 2.2,-25.3 L 4.8,-36.2 L 8.0,-45.3 L 11.5,-52.0 L 15.0,-56.0 L 18.0,-57.2 L 20.2,-55.5 L 21.2,-51.2 L 20.8,-44.5 L 18.7,-36.0 L 15.0,-26.0 Z" fill="none" stroke="#34d399" stroke-width="1.4" opacity="0.9" />
        <path d="M 50.0,0.0 L 48.8,4.9 L 45.2,9.4 L 39.4,12.9 L 31.8,15.2 L 22.9,15.9 L 13.1,14.9 L 3.0,12.2 L -6.7,7.8 L -15.6,2.0 L -23.1,-4.8 L -29.0,-12.2 L -32.8,-19.8 L -34.6,-27.0 L -34.3,-33.2 L -32.0,-38.0 L -28.1,-41.1 L -22.9,-42.1 L -16.8,-40.8 L -10.4,-37.3 L -4.2,-31.6 L 1.4,-24.1 L 6.0,-15.0 L 9.2,-4.9 L 10.8,5.6 L 10.8,16.1 L 9.2,25.8 L 6.1,34.3 L 1.9,41.1 L -3.0,45.8 L -8.3,48.2 L -13.4,48.2 L -17.8,45.8 L -21.2,41.2 L -23.1,34.8 L -23.3,27.0 L -21.7,18.2 L -18.2,9.1 L -12.9,0.1 L -6.1,-8.1 L 1.8,-15.2 L 10.4,-20.7 L 19.2,-24.4 L 27.6,-26.1 L 35.0,-26.0 L 41.0,-24.1 L 45.2,-20.6 L 47.2,-16.1 L 46.8,-10.8 L 44.1,-5.3 L 39.1,-0.1 L 32.0,4.4 L 23.3,7.8 L 13.4,9.8 L 2.8,10.2 L -7.8,9.0 L -17.8,6.2 L -26.8,2.0 L -34.3,-3.2 L -39.8,-9.1 L -43.1,-15.1 L -44.1,-20.9 L -42.8,-25.8 L -39.4,-29.5 L -34.2,-31.6 L -27.6,-31.8 L -20.0,-30.0 L -12.0,-26.1 L -4.2,-20.3 L 3.0,-12.9 L 9.2,-4.2 L 13.9,5.3 L 16.9,15.1 L 18.2,24.6 L 17.7,33.2 L 15.6,40.4 L 12.2,45.8 L 7.8,49.0 L 2.8,49.8 L -2.1,48.2 L -6.7,44.2 L -10.4,38.0 L -12.9,30.1 L -13.9,20.9 L -13.2,10.8 L -10.8,0.5 L -6.8,-9.4 L -1.4,-18.4 L 5.0,-26.0 L 12.0,-31.8 L 19.2,-35.6 L 26.0,-37.3 L 31.8,-36.8 L 36.3,-34.3 L 39.1,-30.1 L 39.8,-24.6 L 38.3,-18.2 L 34.6,-11.4 L 28.8,-4.8 L 21.2,1.2 L 12.2,6.2 L 2.1,9.8 L -8.3,11.8 L -18.6,12.2 L -28.1,10.9 L -36.3,8.1 L -42.8,4.2 L -47.2,-0.5 L -49.2,-5.6 L -48.8,-10.6 L -46.0,-15.0 L -41.0,-18.4 L -34.2,-20.3 L -26.0,-20.7 L -16.8,-19.2 L -7.4,-15.9 L 1.9,-10.9 L 10.4,-4.4 L 17.7,3.2 L 23.3,11.4 L 27.2,19.8 Z" fill="none" stroke="#6ee7b7" stroke-width="1.1" opacity="0.7" />
        <circle cx="0" cy="0" r="28" fill="#064e3b" stroke="#34d399" stroke-width="1.5" />
      </g>

      <!-- Corner Rosettes -->
      
        <g>
          <polygon points="-405.0,-190.0 -415.8,-186.2 -410.9,-175.9 -421.2,-180.8 -425.0,-170.0 -428.8,-180.8 -439.1,-175.9 -434.2,-186.2 -445.0,-190.0 -434.2,-193.8 -439.1,-204.1 -428.8,-199.2 -425.0,-210.0 -421.2,-199.2 -410.9,-204.1 -415.8,-193.8 -405.0,-190.0 -415.8,-186.2" fill="#022c22" stroke="#10b981" stroke-width="1.2" opacity="0.9" />
          <circle cx="-425.0" cy="-190.0" r="7" fill="#047857" stroke="#34d399" stroke-width="1" />
        </g>
        
        <g>
          <polygon points="445.0,-190.0 434.2,-186.2 439.1,-175.9 428.8,-180.8 425.0,-170.0 421.2,-180.8 410.9,-175.9 415.8,-186.2 405.0,-190.0 415.8,-193.8 410.9,-204.1 421.2,-199.2 425.0,-210.0 428.8,-199.2 439.1,-204.1 434.2,-193.8 445.0,-190.0 434.2,-186.2" fill="#022c22" stroke="#10b981" stroke-width="1.2" opacity="0.9" />
          <circle cx="425.0" cy="-190.0" r="7" fill="#047857" stroke="#34d399" stroke-width="1" />
        </g>
        
        <g>
          <polygon points="-405.0,190.0 -415.8,193.8 -410.9,204.1 -421.2,199.2 -425.0,210.0 -428.8,199.2 -439.1,204.1 -434.2,193.8 -445.0,190.0 -434.2,186.2 -439.1,175.9 -428.8,180.8 -425.0,170.0 -421.2,180.8 -410.9,175.9 -415.8,186.2 -405.0,190.0 -415.8,193.8" fill="#022c22" stroke="#10b981" stroke-width="1.2" opacity="0.9" />
          <circle cx="-425.0" cy="190.0" r="7" fill="#047857" stroke="#34d399" stroke-width="1" />
        </g>
        
        <g>
          <polygon points="445.0,190.0 434.2,193.8 439.1,204.1 428.8,199.2 425.0,210.0 421.2,199.2 410.9,204.1 415.8,193.8 405.0,190.0 415.8,186.2 410.9,175.9 421.2,180.8 425.0,170.0 428.8,180.8 439.1,175.9 434.2,186.2 445.0,190.0 434.2,193.8" fill="#022c22" stroke="#10b981" stroke-width="1.2" opacity="0.9" />
          <circle cx="425.0" cy="190.0" r="7" fill="#047857" stroke="#34d399" stroke-width="1" />
        </g>
        
    </g>
    
  </g>

  <!-- ============================================================= -->
  <!-- FINGERPRINTS ON BANKNOTES                                      -->
  <!-- ============================================================= -->
  <!-- Tertiary Latent Fingerprint (Lower Left Note) -->
  <g id="fpTertiary" fill="none" stroke="#06b6d4" stroke-width="3" stroke-linecap="round" stroke-linejoin="round" opacity="0.45" filter="url(#fpGlow)">
    
    <g transform="translate(1350, 460) rotate(-15.0)">
      <path d="M -6.2,19.5 C -6.2,-11.7 6.2,-11.7 6.2,19.5" /><path d="M -11.7,23.4 C -11.7,-18.7 11.7,-18.7 11.7,23.4" /><path d="M -17.2,28.1 C -17.2,-25.7 17.2,-25.7 17.2,28.1" /><path d="M -20.6,28.1 C -24.2,8.4 -24.2,-29.6 0.0,-29.6 C 24.2,-29.6 24.2,8.4 20.6,28.1" /><path d="M -25.2,33.1 C -29.6,9.9 -29.6,-36.3 0.0,-36.3 C 29.6,-36.3 29.6,9.9 25.2,33.1" /><path d="M -29.8,38.2 C -35.1,11.5 -35.1,-42.9 0.0,-42.9 C 35.1,-42.9 35.1,11.5 29.8,38.2" /><path d="M -32.4,43.3 C -40.6,13.0 -40.6,-49.5 0.0,-49.5 C 40.6,-49.5 40.6,13.0 34.5,43.3" /><path d="M -38.5,43.3 C -42.6,21.6 -34.5,8.7 -24.3,0.0" /><path d="M -39.1,48.4 C -46.0,14.5 -46.0,-56.2 0.0,-56.2 C 46.0,-56.2 46.0,14.5 39.1,48.4" /><path d="M -43.8,53.4 C -51.5,16.0 -51.5,-62.8 0.0,-62.8 C 51.5,-62.8 51.5,16.0 43.8,53.4" /><path d="M -48.4,58.5 C -56.9,17.6 -56.9,-69.4 0.0,-69.4 C 56.9,-69.4 56.9,17.6 48.4,58.5" /><path d="M -53.0,63.6 C -62.4,19.1 -62.4,-76.0 0.0,-76.0 C 31.2,-76.0 56.2,-53.2 62.4,-22.8" /><path d="M 61.2,-7.6 C 63.6,19.1 56.2,44.5 46.8,63.6" /><path d="M -57.7,68.6 C -67.9,20.6 -67.9,-82.7 0.0,-82.7 C 67.9,-82.7 67.9,20.6 57.7,68.6" /><path d="M -62.3,73.7 C -73.3,22.1 -73.3,-89.3 0.0,-89.3 C 73.3,-89.3 73.3,22.1 62.3,73.7" /><path d="M -67.0,78.8 C -78.8,23.6 -78.8,-95.9 0.0,-95.9 C 78.8,-95.9 78.8,23.6 67.0,78.8" /><path d="M -71.6,83.9 C -84.2,25.2 -84.2,-102.6 0.0,-102.6 C 84.2,-102.6 84.2,25.2 71.6,83.9" /><path d="M 80.0,83.9 C 88.5,41.9 71.6,16.8 50.5,0.0" /><path d="M -76.2,88.9 C -89.7,26.7 -89.7,-109.2 0.0,-109.2 C 89.7,-109.2 89.7,26.7 76.2,88.9" /><path d="M -80.9,94.0 C -95.2,28.2 -95.2,-115.8 0.0,-115.8 C 95.2,-115.8 95.2,28.2 80.9,94.0" /><path d="M -85.5,99.1 C -100.6,29.7 -100.6,-122.5 0.0,-122.5 C 100.6,-122.5 100.6,29.7 85.5,99.1" /><path d="M -80.5,79.2 Q -110.7,99.1 -60.4,104.0" /><path d="M 80.5,79.2 Q 110.7,99.1 60.4,104.0" /><path d="M -90.2,104.1 C -106.1,31.2 -106.1,-129.1 0.0,-129.1 C 106.1,-129.1 106.1,31.2 90.2,104.1" /><path d="M -94.8,109.2 C -111.5,32.8 -111.5,-135.7 0.0,-135.7 C 111.5,-135.7 111.5,32.8 94.8,109.2" /><path d="M -99.5,114.3 C -117.0,34.3 -117.0,-142.3 0.0,-142.3 C 117.0,-142.3 117.0,34.3 99.5,114.3" /><path d="M -104.1,119.3 C -122.5,35.8 -122.5,-149.0 0.0,-149.0 C 122.5,-149.0 122.5,35.8 104.1,119.3" />
    </g>
    
  </g>

  <!-- Secondary Fingerprint (Upper Right Note) -->
  <g id="fpSecondary" fill="none" stroke="#f59e0b" stroke-width="3.2" stroke-linecap="round" stroke-linejoin="round" opacity="0.75" filter="url(#fpGlow)">
    
    <g transform="translate(1980, 200) rotate(22.0)">
      <path d="M -6.8,21.2 C -6.8,-12.8 6.8,-12.8 6.8,21.2" /><path d="M -12.8,25.5 C -12.8,-20.4 12.8,-20.4 12.8,25.5" /><path d="M -18.7,30.6 C -18.7,-28.1 18.7,-28.1 18.7,30.6" /><path d="M -22.4,30.6 C -26.3,9.2 -26.3,-32.3 0.0,-32.3 C 26.3,-32.3 26.3,9.2 22.4,30.6" /><path d="M -27.5,36.1 C -32.3,10.8 -32.3,-39.5 0.0,-39.5 C 32.3,-39.5 32.3,10.8 27.5,36.1" /><path d="M -32.5,41.6 C -38.2,12.5 -38.2,-46.8 0.0,-46.8 C 38.2,-46.8 38.2,12.5 32.5,41.6" /><path d="M -35.4,47.2 C -44.2,14.2 -44.2,-54.0 0.0,-54.0 C 44.2,-54.0 44.2,14.2 37.6,47.2" /><path d="M -42.0,47.2 C -46.4,23.6 -37.6,9.4 -26.5,0.0" /><path d="M -42.6,52.7 C -50.1,15.8 -50.1,-61.2 0.0,-61.2 C 50.1,-61.2 50.1,15.8 42.6,52.7" /><path d="M -47.7,58.2 C -56.1,17.5 -56.1,-68.4 0.0,-68.4 C 56.1,-68.4 56.1,17.5 47.7,58.2" /><path d="M -52.7,63.8 C -62.0,19.1 -62.0,-75.6 0.0,-75.6 C 62.0,-75.6 62.0,19.1 52.7,63.8" /><path d="M -57.8,69.3 C -68.0,20.8 -68.0,-82.9 0.0,-82.9 C 34.0,-82.9 61.2,-58.0 68.0,-24.9" /><path d="M 66.6,-8.3 C 69.4,20.8 61.2,48.5 51.0,69.3" /><path d="M -62.9,74.8 C -74.0,22.4 -74.0,-90.1 0.0,-90.1 C 74.0,-90.1 74.0,22.4 62.9,74.8" /><path d="M -67.9,80.3 C -79.9,24.1 -79.9,-97.3 0.0,-97.3 C 79.9,-97.3 79.9,24.1 67.9,80.3" /><path d="M -73.0,85.8 C -85.8,25.8 -85.8,-104.5 0.0,-104.5 C 85.8,-104.5 85.8,25.8 73.0,85.8" /><path d="M -78.0,91.4 C -91.8,27.4 -91.8,-111.8 0.0,-111.8 C 91.8,-111.8 91.8,27.4 78.0,91.4" /><path d="M 87.2,91.4 C 96.4,45.7 78.0,18.3 55.1,0.0" /><path d="M -83.1,96.9 C -97.8,29.1 -97.8,-119.0 0.0,-119.0 C 97.8,-119.0 97.8,29.1 83.1,96.9" /><path d="M -88.1,102.4 C -103.7,30.7 -103.7,-126.2 0.0,-126.2 C 103.7,-126.2 103.7,30.7 88.1,102.4" /><path d="M -93.2,108.0 C -109.6,32.4 -109.6,-133.4 0.0,-133.4 C 109.6,-133.4 109.6,32.4 93.2,108.0" /><path d="M -87.7,86.4 Q -120.6,108.0 -65.8,113.3" /><path d="M 87.7,86.4 Q 120.6,108.0 65.8,113.3" /><path d="M -98.3,113.5 C -115.6,34.0 -115.6,-140.7 0.0,-140.7 C 115.6,-140.7 115.6,34.0 98.3,113.5" /><path d="M -103.3,119.0 C -121.5,35.7 -121.5,-147.9 0.0,-147.9 C 121.5,-147.9 121.5,35.7 103.3,119.0" /><path d="M -108.4,124.5 C -127.5,37.4 -127.5,-155.1 0.0,-155.1 C 127.5,-155.1 127.5,37.4 108.4,124.5" /><path d="M -113.4,130.0 C -133.4,39.0 -133.4,-162.3 0.0,-162.3 C 133.4,-162.3 133.4,39.0 113.4,130.0" />
    </g>
    
  </g>

  <!-- Primary Fingerprint (Front Center Note) -->
  <g id="fpPrimary" fill="none" stroke="#fbbf24" stroke-width="3.6" stroke-linecap="round" stroke-linejoin="round" opacity="0.95" filter="url(#fpGlow)">
    
    <g transform="translate(1680, 320) rotate(-4.0)">
      <path d="M -8.4,26.2 C -8.4,-15.8 8.4,-15.8 8.4,26.2" /><path d="M -15.8,31.5 C -15.8,-25.2 15.8,-25.2 15.8,31.5" /><path d="M -23.1,37.8 C -23.1,-34.6 23.1,-34.6 23.1,37.8" /><path d="M -27.7,37.8 C -32.6,11.3 -32.6,-39.9 0.0,-39.9 C 32.6,-39.9 32.6,11.3 27.7,37.8" /><path d="M -33.9,44.6 C -39.9,13.4 -39.9,-48.8 0.0,-48.8 C 39.9,-48.8 39.9,13.4 33.9,44.6" /><path d="M -40.2,51.5 C -47.2,15.4 -47.2,-57.8 0.0,-57.8 C 47.2,-57.8 47.2,15.4 40.2,51.5" /><path d="M -43.7,58.3 C -54.6,17.5 -54.6,-66.7 0.0,-66.7 C 54.6,-66.7 54.6,17.5 46.4,58.3" /><path d="M -51.9,58.3 C -57.3,29.1 -46.4,11.7 -32.8,0.0" /><path d="M -52.7,65.1 C -62.0,19.5 -62.0,-75.6 0.0,-75.6 C 62.0,-75.6 62.0,19.5 52.7,65.1" /><path d="M -58.9,71.9 C -69.3,21.6 -69.3,-84.5 0.0,-84.5 C 69.3,-84.5 69.3,21.6 58.9,71.9" /><path d="M -65.2,78.8 C -76.7,23.6 -76.7,-93.5 0.0,-93.5 C 76.7,-93.5 76.7,23.6 65.2,78.8" /><path d="M -71.4,85.6 C -84.0,25.7 -84.0,-102.4 0.0,-102.4 C 42.0,-102.4 75.6,-71.7 84.0,-30.7" /><path d="M 82.3,-10.2 C 85.7,25.7 75.6,59.9 63.0,85.6" /><path d="M -77.6,92.4 C -91.4,27.7 -91.4,-111.3 0.0,-111.3 C 91.4,-111.3 91.4,27.7 77.6,92.4" /><path d="M -83.9,99.2 C -98.7,29.8 -98.7,-120.2 0.0,-120.2 C 98.7,-120.2 98.7,29.8 83.9,99.2" /><path d="M -90.1,106.1 C -106.1,31.8 -106.1,-129.2 0.0,-129.2 C 106.1,-129.2 106.1,31.8 90.1,106.1" /><path d="M -96.4,112.9 C -113.4,33.9 -113.4,-138.1 0.0,-138.1 C 113.4,-138.1 113.4,33.9 96.4,112.9" /><path d="M 107.7,112.9 C 119.1,56.4 96.4,22.6 68.0,0.0" /><path d="M -102.6,119.7 C -120.8,35.9 -120.8,-147.0 0.0,-147.0 C 120.8,-147.0 120.8,35.9 102.6,119.7" /><path d="M -108.9,126.5 C -128.1,38.0 -128.1,-155.9 0.0,-155.9 C 128.1,-155.9 128.1,38.0 108.9,126.5" /><path d="M -115.1,133.3 C -135.5,40.0 -135.5,-164.8 0.0,-164.8 C 135.5,-164.8 135.5,40.0 115.1,133.3" /><path d="M -108.4,106.7 Q -149.0,133.3 -81.3,140.0" /><path d="M 108.4,106.7 Q 149.0,133.3 81.3,140.0" /><path d="M -121.4,140.2 C -142.8,42.1 -142.8,-173.8 0.0,-173.8 C 142.8,-173.8 142.8,42.1 121.4,140.2" /><path d="M -127.6,147.0 C -150.2,44.1 -150.2,-182.7 0.0,-182.7 C 150.2,-182.7 150.2,44.1 127.6,147.0" /><path d="M -133.9,153.8 C -157.5,46.1 -157.5,-191.6 0.0,-191.6 C 157.5,-191.6 157.5,46.1 133.9,153.8" /><path d="M -140.1,160.7 C -164.8,48.2 -164.8,-200.6 0.0,-200.6 C 164.8,-200.6 164.8,48.2 140.1,160.7" />
    </g>
    
  </g>

  <!-- ============================================================= -->
  <!-- ACCENT ELEMENT: FORENSIC MAGNIFYING LOUPE & VERIFICATION HUD -->
  <!-- ============================================================= -->
  <g id="proofLoupe" filter="url(#lensShadow)">
    <!-- Handle extending down-right -->
    <g>
      <!-- Base Handle Shaft -->
      <line x1="1797.4" y1="425.7" x2="2005.5" y2="613.1" stroke="url(#handleGrad)" stroke-width="26" stroke-linecap="round" />
      <line x1="1807.4" y1="435.7" x2="1995.5" y2="603.1" stroke="#090d16" stroke-width="28" opacity="0.5" stroke-linecap="round" />
      
      <!-- Knurled Grip Bands on Handle -->
      <line x1="1842.0" y1="465.9" x2="1931.2" y2="546.2" stroke="url(#lensBezelGrad)" stroke-width="24" stroke-dasharray="6 4" stroke-linecap="butt" />
      
      <!-- Gold Connector Collar -->
      <circle cx="1805.4" cy="433.7" r="16" fill="url(#lensBezelGrad)" stroke="#78350f" stroke-width="2" />
      
      <!-- Gold End Pommel Cap -->
      <circle cx="2005.5" cy="613.1" r="17" fill="url(#lensBezelGrad)" stroke="#78350f" stroke-width="2" />
    </g>

    <!-- Lens Outer Metallic Bezel Ring -->
    <circle cx="1680" cy="320" r="164" fill="none" stroke="url(#lensBezelGrad)" stroke-width="16" />
    <circle cx="1680" cy="320" r="156" fill="none" stroke="#fef3c7" stroke-width="2" opacity="0.8" />
    <circle cx="1680" cy="320" r="172" fill="none" stroke="#78350f" stroke-width="2" opacity="0.6" />

    <!-- Optical Glass Lens Tint -->
    <circle cx="1680" cy="320" r="156" fill="#0d9488" fill-opacity="0.10" />

    <!-- Magnified / Amplified Fingerprint Ridges inside Lens (via clipPath) -->
    <g clip-path="url(#lensClip)">
      <!-- Extra background depth tint inside lens -->
      <circle cx="1680" cy="320" r="158" fill="#022c22" fill-opacity="0.30" />
      
      <!-- Amplified vivid golden ridges under magnification -->
      <g fill="none" stroke="#fef08a" stroke-width="4.8" stroke-linecap="round" stroke-linejoin="round" opacity="1.0" filter="url(#fpGlow)">
        
    <g transform="translate(1680, 320) rotate(-4.0)">
      <path d="M -8.4,26.2 C -8.4,-15.8 8.4,-15.8 8.4,26.2" /><path d="M -15.8,31.5 C -15.8,-25.2 15.8,-25.2 15.8,31.5" /><path d="M -23.1,37.8 C -23.1,-34.6 23.1,-34.6 23.1,37.8" /><path d="M -27.7,37.8 C -32.6,11.3 -32.6,-39.9 0.0,-39.9 C 32.6,-39.9 32.6,11.3 27.7,37.8" /><path d="M -33.9,44.6 C -39.9,13.4 -39.9,-48.8 0.0,-48.8 C 39.9,-48.8 39.9,13.4 33.9,44.6" /><path d="M -40.2,51.5 C -47.2,15.4 -47.2,-57.8 0.0,-57.8 C 47.2,-57.8 47.2,15.4 40.2,51.5" /><path d="M -43.7,58.3 C -54.6,17.5 -54.6,-66.7 0.0,-66.7 C 54.6,-66.7 54.6,17.5 46.4,58.3" /><path d="M -51.9,58.3 C -57.3,29.1 -46.4,11.7 -32.8,0.0" /><path d="M -52.7,65.1 C -62.0,19.5 -62.0,-75.6 0.0,-75.6 C 62.0,-75.6 62.0,19.5 52.7,65.1" /><path d="M -58.9,71.9 C -69.3,21.6 -69.3,-84.5 0.0,-84.5 C 69.3,-84.5 69.3,21.6 58.9,71.9" /><path d="M -65.2,78.8 C -76.7,23.6 -76.7,-93.5 0.0,-93.5 C 76.7,-93.5 76.7,23.6 65.2,78.8" /><path d="M -71.4,85.6 C -84.0,25.7 -84.0,-102.4 0.0,-102.4 C 42.0,-102.4 75.6,-71.7 84.0,-30.7" /><path d="M 82.3,-10.2 C 85.7,25.7 75.6,59.9 63.0,85.6" /><path d="M -77.6,92.4 C -91.4,27.7 -91.4,-111.3 0.0,-111.3 C 91.4,-111.3 91.4,27.7 77.6,92.4" /><path d="M -83.9,99.2 C -98.7,29.8 -98.7,-120.2 0.0,-120.2 C 98.7,-120.2 98.7,29.8 83.9,99.2" /><path d="M -90.1,106.1 C -106.1,31.8 -106.1,-129.2 0.0,-129.2 C 106.1,-129.2 106.1,31.8 90.1,106.1" /><path d="M -96.4,112.9 C -113.4,33.9 -113.4,-138.1 0.0,-138.1 C 113.4,-138.1 113.4,33.9 96.4,112.9" /><path d="M 107.7,112.9 C 119.1,56.4 96.4,22.6 68.0,0.0" /><path d="M -102.6,119.7 C -120.8,35.9 -120.8,-147.0 0.0,-147.0 C 120.8,-147.0 120.8,35.9 102.6,119.7" /><path d="M -108.9,126.5 C -128.1,38.0 -128.1,-155.9 0.0,-155.9 C 128.1,-155.9 128.1,38.0 108.9,126.5" /><path d="M -115.1,133.3 C -135.5,40.0 -135.5,-164.8 0.0,-164.8 C 135.5,-164.8 135.5,40.0 115.1,133.3" /><path d="M -108.4,106.7 Q -149.0,133.3 -81.3,140.0" /><path d="M 108.4,106.7 Q 149.0,133.3 81.3,140.0" /><path d="M -121.4,140.2 C -142.8,42.1 -142.8,-173.8 0.0,-173.8 C 142.8,-173.8 142.8,42.1 121.4,140.2" /><path d="M -127.6,147.0 C -150.2,44.1 -150.2,-182.7 0.0,-182.7 C 150.2,-182.7 150.2,44.1 127.6,147.0" /><path d="M -133.9,153.8 C -157.5,46.1 -157.5,-191.6 0.0,-191.6 C 157.5,-191.6 157.5,46.1 133.9,153.8" /><path d="M -140.1,160.7 C -164.8,48.2 -164.8,-200.6 0.0,-200.6 C 164.8,-200.6 164.8,48.2 140.1,160.7" />
    </g>
    
      </g>

      <!-- Precision Forensic Crosshairs & Reticle -->
      <g opacity="0.85">
        <!-- Center Target Rings -->
        <circle cx="1680" cy="320" r="48" fill="none" stroke="#fbbf24" stroke-width="1.6" stroke-dasharray="8 6" />
        <circle cx="1680" cy="320" r="24" fill="none" stroke="#fbbf24" stroke-width="1.2" />
        <circle cx="1680" cy="320" r="3" fill="#fbbf24" />

        <!-- Crosshair Axes -->
        <line x1="1537" y1="320" x2="1625" y2="320" stroke="#fbbf24" stroke-width="1.4" stroke-dasharray="6 4" />
        <line x1="1735" y1="320" x2="1823" y2="320" stroke="#fbbf24" stroke-width="1.4" stroke-dasharray="6 4" />
        <line x1="1680" y1="177" x2="1680" y2="265" stroke="#fbbf24" stroke-width="1.4" stroke-dasharray="6 4" />
        <line x1="1680" y1="375" x2="1680" y2="463" stroke="#fbbf24" stroke-width="1.4" stroke-dasharray="6 4" />

        <!-- 4 Corner Caliper Tick Brackets -->
        <path d="M 1600,255 L 1600,240 L 1615,240" fill="none" stroke="#fbbf24" stroke-width="2" />
        <path d="M 1760,255 L 1760,240 L 1745,240" fill="none" stroke="#fbbf24" stroke-width="2" />
        <path d="M 1600,385 L 1600,400 L 1615,400" fill="none" stroke="#fbbf24" stroke-width="2" />
        <path d="M 1760,385 L 1760,400 L 1745,400" fill="none" stroke="#fbbf24" stroke-width="2" />
      </g>

      <!-- Verified Pattern Minutiae Points (Symbolizing Proof of Pattern) -->
      <g id="verifiedMinutiae" filter="url(#brightMinutiaeGlow)">
        <!-- Node 1: Ridge bifurcation -->
        <circle cx="1644" cy="292" r="5.5" fill="#10b981" stroke="#ffffff" stroke-width="1.5" />
        <!-- Node 2: Core apex -->
        <circle cx="1680" cy="276" r="5.5" fill="#38bdf8" stroke="#ffffff" stroke-width="1.5" />
        <!-- Node 3: Right ridge branch -->
        <circle cx="1722" cy="302" r="5.5" fill="#10b981" stroke="#ffffff" stroke-width="1.5" />
        <!-- Node 4: Lower left loop -->
        <circle cx="1632" cy="354" r="5.5" fill="#10b981" stroke="#ffffff" stroke-width="1.5" />
        <!-- Node 5: Lower right triradius -->
        <circle cx="1732" cy="362" r="5.5" fill="#38bdf8" stroke="#ffffff" stroke-width="1.5" />

        <!-- Verification Indicator Vector Lines -->
        <line x1="1644" y1="292" x2="1680" y2="276" stroke="#34d399" stroke-width="1.5" stroke-dasharray="3 3" />
        <line x1="1680" y1="276" x2="1722" y2="302" stroke="#34d399" stroke-width="1.5" stroke-dasharray="3 3" />
        <line x1="1644" y1="292" x2="1632" y2="354" stroke="#34d399" stroke-width="1.5" stroke-dasharray="3 3" />
        <line x1="1722" y1="302" x2="1732" y2="362" stroke="#34d399" stroke-width="1.5" stroke-dasharray="3 3" />
      </g>

      <!-- Glass Specular Reflection Crescent -->
      <path d="M 1561.5,209.4 A 134.3,134.3 0 0,1 1790.6,201.5 A 118.5,110.6 0 0,0 1561.5,209.4 Z" fill="url(#lensReflectionGrad)" />
    </g>

    <!-- Verification Proof Seal Badge (Attached to rim of Loupe at top-left) -->
    <g transform="translate(1570, 210)">
      <circle cx="0" cy="0" r="26" fill="#022c22" stroke="url(#lensBezelGrad)" stroke-width="3" />
      <!-- Starburst notches -->
      <circle cx="0" cy="0" r="22" fill="#047857" stroke="#34d399" stroke-width="1.5" />
      <!-- Verification Checkmark Symbol -->
      <path d="M -9,-1 L -2,6 L 9,-6" fill="none" stroke="#ffffff" stroke-width="3.5" stroke-linecap="round" stroke-linejoin="round" />
    </g>
  </g>
</svg>